<svg width="32" height="32" viewBox="0 0 32 32" fill="none" xmlns="http://www.w3.org/2000/svg">
<path d="M29.7046 25.706V25.702L17.7326 4.966H17.7306C17.5806 4.414 16.8966 4 16.0746 4C15.2466 4 14.5646 4.424 14.4206 4.982L2.16664 26.204L2.17664 26.218C1.89664 26.496 1.95064 27.156 2.33064 27.772C2.71264 28.4 3.28864 28.75 3.66064 28.606L3.67464 28.628H28.4786L28.4926 28.596C28.9066 28.66 29.4166 28.296 29.7346 27.648C30.1066 26.902 30.0826 26.062 29.7046 25.706ZM14.3386 11.486C14.3386 10.568 15.0846 9.824 16.0006 9.824C16.9206 9.824 17.6626 10.568 17.6626 11.486V20.052C17.6626 20.968 16.9206 21.714 16.0006 21.714C15.0846 21.714 14.3386 20.968 14.3386 20.052V11.486ZM16.0006 26.438C15.0026 26.438 14.1926 25.628 14.1926 24.628C14.1926 23.63 15.0026 22.824 16.0006 22.824C16.9986 22.824 17.8086 23.63 17.8086 24.628C17.8086 25.626 16.9986 26.438 16.0006 26.438Z" fill="#FA8C16"/>
</svg>
