<svg width="144" height="24" viewBox="0 0 144 24" fill="none" xmlns="http://www.w3.org/2000/svg">
<path d="M0.48 2.32C0.48 2.08 0.704 1.96 1.152 1.96C1.312 1.96 1.68 1.976 2.256 2.008C2.832 2.04 3.368 2.056 3.864 2.056C4.168 2.056 4.456 2.048 4.728 2.032C5.016 2.016 5.432 2.008 5.976 2.008C6.408 2.008 6.624 2.12 6.624 2.344C6.624 2.472 6.256 2.688 5.52 2.992C5.008 3.2 4.752 4.12 4.752 5.752C4.752 7.912 4.736 9.824 4.704 11.488C4.688 13.136 4.68 14.184 4.68 14.632C4.68 15.976 4.88 16.944 5.28 17.536C5.632 18.032 6.016 18.28 6.432 18.28C6.464 18.28 6.544 18.288 6.672 18.304C6.8 18.304 6.88 18.304 6.912 18.304C7.024 18.304 7.136 18.336 7.248 18.4C7.36 18.448 7.416 18.504 7.416 18.568C7.416 18.744 7.368 18.864 7.272 18.928C7.192 18.976 7.04 19 6.816 19C6.336 19 5.888 18.984 5.472 18.952C5.072 18.92 4.76 18.904 4.536 18.904C4.088 18.904 3.6 18.928 3.072 18.976C2.544 19.008 2.152 19.024 1.896 19.024C1.176 19.024 0.816 18.904 0.816 18.664C0.816 18.52 0.888 18.424 1.032 18.376C1.192 18.312 1.368 18.272 1.56 18.256C1.752 18.224 1.952 18.12 2.16 17.944C2.368 17.752 2.512 17.48 2.592 17.128C2.624 17.016 2.672 16.112 2.736 14.416C2.816 12.704 2.856 11.472 2.856 10.72V9.352C2.856 9.144 2.856 8.752 2.856 8.176C2.872 7.584 2.88 7.112 2.88 6.76V5.656C2.88 4.952 2.848 4.368 2.784 3.904C2.736 3.52 2.52 3.224 2.136 3.016C1.768 2.808 1.384 2.696 0.984 2.68C0.648 2.664 0.48 2.544 0.48 2.32ZM8.619 9.688C8.619 9.544 8.715 9.44 8.907 9.376C9.099 9.296 9.387 9.216 9.771 9.136C10.155 9.056 10.475 8.96 10.731 8.848C10.827 8.816 10.931 8.768 11.043 8.704C11.155 8.64 11.235 8.6 11.283 8.584C11.347 8.552 11.419 8.528 11.499 8.512C11.595 8.496 11.691 8.488 11.787 8.488C11.979 8.488 12.075 8.72 12.075 9.184C12.075 9.296 12.051 9.48 12.003 9.736C11.971 9.992 11.955 10.144 11.955 10.192C11.955 10.384 12.003 10.48 12.099 10.48C12.115 10.48 12.163 10.424 12.243 10.312C12.339 10.184 12.459 10.04 12.603 9.88C12.763 9.704 12.955 9.536 13.179 9.376C13.403 9.2 13.699 9.056 14.067 8.944C14.451 8.816 14.875 8.752 15.339 8.752C15.931 8.752 16.443 8.856 16.875 9.064C17.307 9.256 17.603 9.472 17.763 9.712C17.939 9.936 18.083 10.152 18.195 10.36C18.307 10.552 18.379 10.648 18.411 10.648C18.427 10.648 18.571 10.488 18.843 10.168C19.131 9.832 19.531 9.504 20.043 9.184C20.571 8.848 21.123 8.68 21.699 8.68C22.867 8.68 23.763 9.024 24.387 9.712C25.027 10.4 25.403 11.256 25.515 12.28C25.611 13.224 25.659 14.24 25.659 15.328V16.096C25.659 16.816 25.699 17.336 25.779 17.656C25.859 17.976 26.043 18.184 26.331 18.28C26.347 18.28 26.419 18.296 26.547 18.328C26.675 18.344 26.779 18.36 26.859 18.376C26.955 18.392 27.043 18.432 27.123 18.496C27.203 18.56 27.243 18.64 27.243 18.736C27.243 18.976 26.979 19.096 26.451 19.096C26.355 19.096 26.107 19.08 25.707 19.048C25.323 19.016 25.043 19 24.867 19C24.627 19 24.315 19.016 23.931 19.048C23.563 19.08 23.299 19.096 23.139 19.096C22.755 19.096 22.563 19.016 22.563 18.856C22.563 18.68 22.731 18.528 23.067 18.4C23.403 18.272 23.603 18.136 23.667 17.992C23.731 17.816 23.763 17.448 23.763 16.888V16.504C23.763 15.96 23.755 15.488 23.739 15.088C23.739 14.672 23.739 14.296 23.739 13.96C23.739 13.608 23.723 13.304 23.691 13.048C23.675 12.792 23.667 12.576 23.667 12.4C23.667 12.208 23.643 12.04 23.595 11.896C23.547 11.736 23.515 11.616 23.499 11.536C23.499 11.456 23.459 11.36 23.379 11.248C23.299 11.136 23.251 11.064 23.235 11.032C23.219 11 23.155 10.92 23.043 10.792C22.947 10.664 22.883 10.584 22.851 10.552C22.435 10.056 21.835 9.808 21.051 9.808C20.683 9.808 20.299 9.904 19.899 10.096C19.499 10.288 19.179 10.488 18.939 10.696C18.699 10.888 18.579 11.024 18.579 11.104C18.579 11.152 18.587 11.264 18.603 11.44C18.635 11.616 18.659 11.936 18.675 12.4C18.707 12.848 18.723 13.432 18.723 14.152V16.192C18.723 16.928 18.827 17.472 19.035 17.824C19.243 18.16 19.691 18.376 20.379 18.472C20.539 18.488 20.651 18.544 20.715 18.64C20.779 18.72 20.811 18.792 20.811 18.856C20.811 19.032 20.659 19.12 20.355 19.12C20.243 19.12 19.987 19.096 19.587 19.048C19.187 19.016 18.859 19 18.603 19C18.443 19 18.051 19.016 17.427 19.048C16.803 19.096 16.467 19.12 16.419 19.12C16.067 19.12 15.891 19.016 15.891 18.808C15.891 18.696 15.923 18.616 15.987 18.568C16.051 18.504 16.203 18.424 16.443 18.328C16.539 18.296 16.611 18.264 16.659 18.232C16.723 18.2 16.795 18.064 16.875 17.824C16.955 17.584 16.995 17.256 16.995 16.84C16.995 16.776 16.995 16.712 16.995 16.648C16.995 16.584 16.995 16.504 16.995 16.408C17.011 16.296 17.019 16.056 17.019 15.688C17.019 15.304 17.019 14.816 17.019 14.224C17.019 13.872 17.011 13.592 16.995 13.384C16.995 13.16 16.995 13.016 16.995 12.952C16.995 12.888 16.987 12.84 16.971 12.808C16.971 12.76 16.971 12.728 16.971 12.712C16.971 11.864 16.755 11.184 16.323 10.672C15.891 10.16 15.291 9.904 14.523 9.904C13.851 9.904 13.251 10.08 12.723 10.432C12.195 10.784 11.931 11.192 11.931 11.656V11.992V16.504C11.931 17.08 12.035 17.52 12.243 17.824C12.451 18.128 12.683 18.304 12.939 18.352C13.195 18.384 13.427 18.424 13.635 18.472C13.843 18.52 13.947 18.6 13.947 18.712C13.947 18.856 13.923 18.952 13.875 19C13.827 19.048 13.683 19.072 13.443 19.072C13.379 19.072 13.123 19.056 12.675 19.024C12.243 19.008 11.827 19 11.427 19C11.059 19 10.667 19.008 10.251 19.024C9.835 19.056 9.595 19.072 9.531 19.072C9.147 19.072 8.955 18.952 8.955 18.712C8.955 18.6 8.995 18.52 9.075 18.472C9.171 18.424 9.275 18.392 9.387 18.376C9.499 18.36 9.619 18.296 9.747 18.184C9.875 18.056 9.979 17.88 10.059 17.656C10.187 17.208 10.251 15.992 10.251 14.008C10.251 13.704 10.243 13.224 10.227 12.568C10.227 11.912 10.227 11.416 10.227 11.08C10.227 10.696 10.139 10.424 9.963 10.264C9.803 10.104 9.619 10.032 9.411 10.048C9.219 10.048 9.035 10.032 8.859 10C8.699 9.952 8.619 9.848 8.619 9.688ZM28.8786 16.96C28.8786 16.384 28.9986 15.904 29.2386 15.52C29.4786 15.12 29.8386 14.816 30.3186 14.608C30.8146 14.384 31.3266 14.208 31.8546 14.08C32.3826 13.952 33.0226 13.824 33.7746 13.696C33.8706 13.68 33.9426 13.672 33.9906 13.672C34.0386 13.656 34.1026 13.648 34.1826 13.648C34.2626 13.632 34.3346 13.616 34.3986 13.6C34.5106 13.584 34.5826 13.568 34.6146 13.552C34.6626 13.536 34.7026 13.504 34.7346 13.456C34.7826 13.392 34.8066 13.312 34.8066 13.216C34.8066 13.056 34.8146 12.84 34.8306 12.568C34.8466 12.28 34.8546 12.08 34.8546 11.968C34.8546 11.056 34.5906 10.4 34.0626 10C33.5346 9.584 33.0226 9.376 32.5266 9.376C31.3746 9.376 30.7986 9.856 30.7986 10.816C30.7986 10.944 30.8146 11.104 30.8466 11.296C30.8786 11.488 30.8946 11.616 30.8946 11.68C30.8946 12 30.7506 12.16 30.4626 12.16C30.3666 12.16 30.2466 12.152 30.1026 12.136C29.9586 12.104 29.7906 12.064 29.5986 12.016C29.4226 11.952 29.2706 11.856 29.1426 11.728C29.0306 11.584 28.9746 11.416 28.9746 11.224C28.9746 10.6 29.3906 10.008 30.2226 9.448C31.0706 8.872 31.9986 8.584 33.0066 8.584C33.6946 8.584 34.2786 8.664 34.7586 8.824C35.2386 8.984 35.5906 9.168 35.8146 9.376C36.0546 9.568 36.2386 9.832 36.3666 10.168C36.4946 10.488 36.5666 10.744 36.5826 10.936C36.5986 11.112 36.6066 11.336 36.6066 11.608C36.6066 12.76 36.5826 13.672 36.5346 14.344C36.5026 15 36.4866 15.576 36.4866 16.072C36.4866 16.664 36.5506 17.136 36.6786 17.488C36.8066 17.824 36.9586 18.04 37.1346 18.136C37.3106 18.232 37.4866 18.288 37.6626 18.304C37.8386 18.32 37.9906 18.352 38.1186 18.4C38.2466 18.448 38.3106 18.544 38.3106 18.688C38.3106 19.024 37.8066 19.192 36.7986 19.192C36.3826 19.192 36.0226 19.08 35.7186 18.856C35.4306 18.632 35.2226 18.416 35.0946 18.208C34.9666 17.984 34.8946 17.872 34.8786 17.872C34.8626 17.872 34.7986 17.928 34.6866 18.04C34.5746 18.136 34.4146 18.256 34.2066 18.4C34.0146 18.544 33.7906 18.688 33.5346 18.832C33.2946 18.976 33.0066 19.096 32.6706 19.192C32.3506 19.304 32.0306 19.36 31.7106 19.36C30.6866 19.36 29.9426 19.12 29.4786 18.64C29.0786 18.24 28.8786 17.68 28.8786 16.96ZM30.7506 16.6C30.7506 17.144 30.9106 17.584 31.2306 17.92C31.5506 18.24 32.0066 18.4 32.5986 18.4C33.0146 18.4 33.3666 18.336 33.6546 18.208C33.9586 18.08 34.1826 17.936 34.3266 17.776C34.4706 17.616 34.5826 17.408 34.6626 17.152C34.7426 16.88 34.7826 16.672 34.7826 16.528C34.7986 16.384 34.8066 16.192 34.8066 15.952V14.224C34.8066 14.08 34.7506 14.008 34.6386 14.008C34.6066 14.008 34.5666 14.016 34.5186 14.032C34.4706 14.048 34.4306 14.056 34.3986 14.056C34.0306 14.12 33.7986 14.16 33.7026 14.176C33.6066 14.192 33.3826 14.24 33.0306 14.32C32.6786 14.4 32.4306 14.472 32.2866 14.536C32.1586 14.6 31.9666 14.704 31.7106 14.848C31.4706 14.976 31.2946 15.12 31.1826 15.28C31.0866 15.424 30.9906 15.616 30.8946 15.856C30.7986 16.08 30.7506 16.328 30.7506 16.6ZM39.3969 21.328C39.3969 20.896 39.5409 20.528 39.8289 20.224C40.1169 19.936 40.4049 19.72 40.6929 19.576C40.9809 19.432 41.1249 19.336 41.1249 19.288C41.1249 19.256 41.0849 19.208 41.0049 19.144C40.9249 19.08 40.8289 19.008 40.7169 18.928C40.6209 18.848 40.5329 18.712 40.4529 18.52C40.3729 18.328 40.3329 18.112 40.3329 17.872C40.3329 17.392 40.4369 16.976 40.6449 16.624C40.8529 16.272 41.0609 16.008 41.2689 15.832C41.4769 15.656 41.5809 15.544 41.5809 15.496C41.5809 15.432 41.4929 15.328 41.3169 15.184C41.1569 15.04 40.9729 14.88 40.7649 14.704C40.5569 14.512 40.3649 14.208 40.1889 13.792C40.0289 13.36 39.9489 12.856 39.9489 12.28C39.9489 11.912 40.0049 11.544 40.1169 11.176C40.2449 10.792 40.4449 10.4 40.7169 10C41.0049 9.584 41.4369 9.248 42.0129 8.992C42.6049 8.736 43.3009 8.608 44.1009 8.608C44.7249 8.608 45.2609 8.688 45.7089 8.848C46.1569 9.008 46.4849 9.168 46.6929 9.328C46.9169 9.488 47.0609 9.568 47.1249 9.568C47.2529 9.568 47.6609 9.424 48.3489 9.136C48.5729 9.04 48.7409 8.824 48.8529 8.488C48.9649 8.152 49.0849 7.984 49.2129 7.984C49.4209 7.984 49.5249 8.048 49.5249 8.176C49.5249 8.56 49.4689 8.976 49.3569 9.424C49.2449 9.856 49.1249 10.168 48.9969 10.36C48.8049 10.664 48.4769 10.912 48.0129 11.104C48.1889 11.584 48.2769 11.984 48.2769 12.304C48.2769 13.328 47.8929 14.192 47.1249 14.896C46.3569 15.6 45.4209 15.952 44.3169 15.952C43.9009 15.952 43.5009 15.92 43.1169 15.856C42.7489 15.776 42.5329 15.736 42.4689 15.736C42.3889 15.736 42.2849 15.752 42.1569 15.784C42.0289 15.816 41.8689 15.928 41.6769 16.12C41.4849 16.312 41.3889 16.576 41.3889 16.912C41.3889 17.456 41.6369 17.8 42.1329 17.944C42.6289 18.088 43.4529 18.16 44.6049 18.16H45.7089C48.0289 18.16 49.1889 18.864 49.1889 20.272C49.1889 20.768 49.1329 21.144 49.0209 21.4C48.7169 22.184 48.0929 22.808 47.1489 23.272C46.2049 23.736 45.1089 23.968 43.8609 23.968C43.1409 23.968 42.4689 23.896 41.8449 23.752C41.2209 23.624 40.6529 23.352 40.1409 22.936C39.6449 22.52 39.3969 21.984 39.3969 21.328ZM40.7889 21.184C40.7889 21.888 41.0849 22.416 41.6769 22.768C42.2689 23.136 42.9969 23.32 43.8609 23.32C44.8529 23.32 45.7409 23.112 46.5249 22.696C47.3249 22.296 47.7249 21.776 47.7249 21.136C47.7249 20.848 47.6609 20.616 47.5329 20.44C47.4049 20.264 47.1889 20.136 46.8849 20.056C46.5809 19.992 46.3089 19.952 46.0689 19.936C45.8449 19.92 45.5089 19.912 45.0609 19.912H44.8449C44.3329 19.912 43.7089 19.856 42.9729 19.744L41.8929 19.576C41.7329 19.576 41.5089 19.736 41.2209 20.056C40.9329 20.376 40.7889 20.752 40.7889 21.184ZM41.7729 12.04C41.7729 13 41.9969 13.8 42.4449 14.44C42.9089 15.08 43.4849 15.4 44.1729 15.4C44.8929 15.4 45.4449 15.128 45.8289 14.584C46.2129 14.024 46.4049 13.344 46.4049 12.544C46.4049 11.648 46.1809 10.856 45.7329 10.168C45.2849 9.48 44.6769 9.136 43.9089 9.136C43.3169 9.136 42.8129 9.392 42.3969 9.904C41.9809 10.4 41.7729 11.112 41.7729 12.04ZM50.9985 14.344C50.9985 12.744 51.4465 11.392 52.3425 10.288C53.2545 9.184 54.4305 8.632 55.8705 8.632C56.5425 8.632 57.1505 8.752 57.6945 8.992C58.2545 9.232 58.6865 9.528 58.9905 9.88C59.2945 10.216 59.5505 10.576 59.7585 10.96C59.9665 11.344 60.1025 11.664 60.1665 11.92C60.2465 12.16 60.2865 12.336 60.2865 12.448C60.2865 12.736 59.9585 12.88 59.3025 12.88H53.8545H53.1345C53.0065 12.88 52.9265 12.896 52.8945 12.928C52.8785 12.944 52.8705 13.016 52.8705 13.144C52.8705 14.648 53.2705 15.832 54.0705 16.696C54.8865 17.56 55.8385 17.992 56.9265 17.992C57.5985 17.992 58.2785 17.816 58.9665 17.464C59.6705 17.096 60.0385 16.912 60.0705 16.912C60.2305 16.912 60.3105 16.984 60.3105 17.128C60.3105 17.192 60.2545 17.312 60.1425 17.488C60.0305 17.648 59.8545 17.84 59.6145 18.064C59.3745 18.288 59.0945 18.504 58.7745 18.712C58.4545 18.92 58.0545 19.096 57.5745 19.24C57.0945 19.384 56.5905 19.456 56.0625 19.456C54.6545 19.456 53.4545 19.024 52.4625 18.16C51.4865 17.296 50.9985 16.024 50.9985 14.344ZM53.0145 11.968C53.0145 12.192 53.1185 12.304 53.3265 12.304C53.7585 12.304 54.5505 12.28 55.7025 12.232C56.8545 12.184 57.4705 12.16 57.5505 12.16C57.7745 12.16 57.9105 12.144 57.9585 12.112C58.0225 12.064 58.0545 11.984 58.0545 11.872C58.0545 11.392 57.8305 10.832 57.3825 10.192C56.9345 9.552 56.2945 9.232 55.4625 9.232C54.6945 9.232 54.0945 9.552 53.6625 10.192C53.2305 10.816 53.0145 11.408 53.0145 11.968ZM66.8316 2.2C66.8316 2.056 66.8956 1.976 67.0236 1.96C67.1676 1.928 67.5116 1.912 68.0556 1.912H70.1436C70.5436 1.912 71.2796 1.896 72.3516 1.864C73.4236 1.832 74.2476 1.816 74.8236 1.816C75.9276 1.816 77.0316 1.984 78.1356 2.32C79.2396 2.656 80.2556 3.144 81.1836 3.784C82.1116 4.408 82.8636 5.232 83.4396 6.256C84.0156 7.264 84.3036 8.392 84.3036 9.64C84.3036 10.76 84.2236 11.736 84.0636 12.568C83.9196 13.384 83.6716 14.096 83.3196 14.704C82.9676 15.296 82.6156 15.784 82.2636 16.168C81.9116 16.536 81.4316 16.976 80.8236 17.488C80.3436 17.872 79.6476 18.232 78.7356 18.568C77.8236 18.904 76.8876 19.072 75.9276 19.072C75.8316 19.072 75.0156 19.048 73.4796 19C71.9436 18.968 70.8396 18.952 70.1676 18.952C69.6076 18.952 69.0876 18.968 68.6076 19C68.1276 19.048 67.8476 19.072 67.7676 19.072C67.3836 19.072 67.1916 18.968 67.1916 18.76C67.1916 18.632 67.2156 18.544 67.2636 18.496C67.3276 18.432 67.4476 18.376 67.6236 18.328C67.8156 18.28 67.9516 18.24 68.0316 18.208C68.2876 18.096 68.5196 17.888 68.7276 17.584C68.9516 17.264 69.0636 16.952 69.0636 16.648C69.0636 15.752 69.0636 14.608 69.0636 13.216C69.0796 11.824 69.0876 10.8 69.0876 10.144C69.0876 9.568 69.0796 8.672 69.0636 7.456C69.0636 6.224 69.0636 5.088 69.0636 4.048C69.0636 3.776 68.9276 3.504 68.6556 3.232C68.3996 2.944 68.1116 2.792 67.7916 2.776C67.5676 2.76 67.3996 2.744 67.2876 2.728C67.1916 2.712 67.0876 2.664 66.9756 2.584C66.8796 2.488 66.8316 2.36 66.8316 2.2ZM71.0796 15.616C71.0796 15.92 71.0796 16.168 71.0796 16.36C71.0956 16.552 71.1276 16.728 71.1756 16.888C71.2396 17.048 71.2876 17.16 71.3196 17.224C71.3516 17.288 71.4476 17.36 71.6076 17.44C71.7676 17.52 71.8876 17.576 71.9676 17.608C72.0636 17.624 72.2556 17.672 72.5436 17.752C72.8316 17.832 73.0716 17.896 73.2636 17.944C73.8236 18.104 74.4076 18.184 75.0156 18.184H75.4956C76.5836 18.184 77.5116 18.032 78.2796 17.728C79.0476 17.408 79.7836 16.912 80.4876 16.24C81.6716 15.104 82.2636 13.264 82.2636 10.72C82.2636 9.44 82.0076 8.28 81.4956 7.24C80.9996 6.2 80.3436 5.376 79.5276 4.768C78.7116 4.144 77.8316 3.672 76.8876 3.352C75.9436 3.016 74.9916 2.848 74.0316 2.848C73.5996 2.848 73.2796 2.848 73.0716 2.848C72.8796 2.848 72.6476 2.872 72.3756 2.92C72.1196 2.952 71.9436 2.984 71.8476 3.016C71.7676 3.032 71.6636 3.112 71.5356 3.256C71.4076 3.384 71.3276 3.496 71.2956 3.592C71.2796 3.688 71.2476 3.88 71.1996 4.168C71.1676 4.44 71.1516 4.68 71.1516 4.888C71.1516 5.096 71.1516 5.432 71.1516 5.896C71.1516 6.248 71.1436 7.08 71.1276 8.392C71.1116 9.688 71.1036 10.392 71.1036 10.504C71.1036 11.464 71.0956 12.504 71.0796 13.624C71.0796 14.744 71.0796 15.408 71.0796 15.616ZM86.2234 9.856C86.2234 9.776 86.2394 9.712 86.2714 9.664C86.3194 9.616 86.3994 9.568 86.5114 9.52C86.6394 9.456 86.7674 9.408 86.8954 9.376C87.0234 9.328 87.2074 9.264 87.4474 9.184C87.7034 9.088 87.9434 8.992 88.1674 8.896C88.3434 8.816 88.5034 8.744 88.6474 8.68C88.8074 8.616 88.9114 8.576 88.9594 8.56C89.0074 8.528 89.0634 8.504 89.1274 8.488C89.1914 8.472 89.2714 8.464 89.3674 8.464C89.6074 8.464 89.7274 8.616 89.7274 8.92C89.7274 9 89.7034 9.176 89.6554 9.448C89.6074 9.72 89.5834 9.928 89.5834 10.072V16.648C89.5834 17.128 89.6554 17.504 89.7994 17.776C89.9594 18.048 90.1194 18.216 90.2794 18.28C90.4554 18.344 90.6714 18.384 90.9274 18.4C91.1194 18.416 91.2474 18.432 91.3114 18.448C91.3754 18.448 91.4474 18.472 91.5274 18.52C91.6074 18.568 91.6474 18.648 91.6474 18.76C91.6474 19.032 91.5114 19.168 91.2394 19.168C91.2074 19.168 91.1514 19.16 91.0714 19.144C90.9914 19.144 90.9274 19.144 90.8794 19.144C90.5274 19.144 90.2314 19.136 89.9914 19.12C89.7514 19.104 89.4794 19.096 89.1754 19.096C88.7914 19.096 88.4314 19.104 88.0954 19.12C87.7594 19.136 87.5514 19.144 87.4714 19.144C86.8314 19.144 86.5114 19.04 86.5114 18.832C86.5114 18.608 86.6314 18.456 86.8714 18.376C86.8874 18.376 86.9194 18.368 86.9674 18.352C87.3354 18.224 87.5594 18.064 87.6394 17.872C87.7834 17.552 87.8554 16.28 87.8554 14.056V11.944C87.8554 11.48 87.7994 11.112 87.6874 10.84C87.5754 10.568 87.4714 10.4 87.3754 10.336C87.2794 10.272 87.1114 10.224 86.8714 10.192C86.6474 10.144 86.5114 10.112 86.4634 10.096C86.3034 10.032 86.2234 9.952 86.2234 9.856ZM87.5914 4.84C87.5914 4.648 87.7274 4.384 87.9994 4.048C88.2874 3.696 88.5514 3.52 88.7914 3.52C89.0474 3.52 89.2954 3.688 89.5354 4.024C89.7754 4.344 89.8954 4.632 89.8954 4.888C89.8954 5.144 89.7434 5.432 89.4394 5.752C89.1354 6.056 88.9114 6.208 88.7674 6.208C88.4474 6.208 88.1674 6.04 87.9274 5.704C87.7034 5.368 87.5914 5.08 87.5914 4.84ZM93.4997 17.968V15.88C93.4997 15.704 93.5317 15.56 93.5957 15.448C93.6757 15.32 93.7637 15.256 93.8597 15.256C94.0197 15.256 94.1237 15.296 94.1717 15.376C94.2357 15.44 94.2917 15.584 94.3397 15.808C94.3877 16.032 94.4357 16.192 94.4837 16.288C95.0757 17.76 95.9077 18.496 96.9797 18.496C97.4757 18.496 97.9477 18.368 98.3957 18.112C98.8437 17.84 99.0677 17.4 99.0677 16.792C99.0677 16.264 98.8837 15.824 98.5157 15.472C98.1477 15.12 97.6997 14.848 97.1717 14.656C96.6437 14.448 96.1157 14.24 95.5877 14.032C95.0597 13.808 94.6117 13.488 94.2437 13.072C93.8757 12.64 93.6917 12.104 93.6917 11.464C93.6917 10.568 94.0517 9.848 94.7717 9.304C95.4917 8.76 96.3397 8.488 97.3157 8.488C98.0677 8.488 98.6677 8.56 99.1157 8.704C99.5637 8.832 99.8277 8.952 99.9077 9.064C100.004 9.176 100.052 9.28 100.052 9.376C100.052 9.392 100.068 9.608 100.1 10.024C100.132 10.44 100.148 10.704 100.148 10.816C100.148 11.088 100.116 11.272 100.052 11.368C99.9877 11.464 99.8757 11.512 99.7157 11.512C99.6357 11.512 99.5237 11.4 99.3797 11.176C99.2517 10.936 99.0997 10.68 98.9237 10.408C98.7637 10.136 98.4917 9.888 98.1077 9.664C97.7397 9.424 97.3077 9.304 96.8117 9.304C96.3477 9.304 95.9637 9.424 95.6597 9.664C95.3557 9.888 95.2037 10.176 95.2037 10.528C95.2037 10.72 95.2277 10.904 95.2757 11.08C95.3237 11.24 95.4037 11.384 95.5157 11.512C95.6437 11.64 95.7477 11.752 95.8277 11.848C95.9237 11.928 96.0757 12.016 96.2837 12.112C96.4917 12.208 96.6437 12.28 96.7397 12.328C96.8517 12.36 97.0277 12.424 97.2677 12.52C97.5237 12.6 97.6917 12.656 97.7717 12.688C98.9237 13.12 99.6997 13.576 100.1 14.056C100.5 14.52 100.7 15.216 100.7 16.144C100.7 17.04 100.276 17.872 99.4277 18.64C98.8517 19.136 98.0597 19.384 97.0517 19.384C96.7637 19.384 96.4597 19.352 96.1397 19.288C95.8197 19.224 95.5637 19.16 95.3717 19.096C95.1957 19.048 94.9877 18.976 94.7477 18.88C94.5077 18.784 94.3797 18.736 94.3637 18.736C94.2997 18.72 94.2197 18.696 94.1237 18.664C94.0437 18.632 93.9797 18.616 93.9317 18.616C93.8997 18.6 93.8517 18.576 93.7877 18.544C93.7237 18.512 93.6757 18.488 93.6437 18.472C93.6277 18.44 93.6037 18.4 93.5717 18.352C93.5397 18.304 93.5157 18.248 93.4997 18.184C93.4997 18.12 93.4997 18.048 93.4997 17.968ZM102.346 9.76C102.346 9.68 102.41 9.616 102.538 9.568C102.682 9.52 102.962 9.432 103.378 9.304C103.794 9.176 104.234 9 104.698 8.776C105.322 8.472 105.658 8.32 105.706 8.32C105.914 8.32 106.018 8.424 106.018 8.632C106.018 8.968 106.002 9.28 105.97 9.568C105.938 9.84 105.922 10 105.922 10.048C105.922 10.176 105.946 10.24 105.994 10.24C106.01 10.24 106.074 10.184 106.186 10.072C106.314 9.96 106.474 9.824 106.666 9.664C106.858 9.488 107.082 9.32 107.338 9.16C107.61 9 107.946 8.864 108.346 8.752C108.746 8.64 109.162 8.584 109.594 8.584C111.018 8.584 112.106 9.056 112.858 10C113.61 10.928 113.986 12.064 113.986 13.408C113.986 14.896 113.514 16.24 112.57 17.44C111.642 18.624 110.394 19.216 108.826 19.216C108.09 19.216 107.49 19.144 107.026 19C106.578 18.84 106.266 18.688 106.09 18.544C105.914 18.384 105.794 18.304 105.73 18.304C105.682 18.304 105.658 18.368 105.658 18.496V21.136V21.448C105.658 21.752 105.794 22.128 106.066 22.576C106.242 22.864 106.506 23.032 106.858 23.08C107.226 23.128 107.53 23.16 107.77 23.176C108.026 23.192 108.154 23.304 108.154 23.512C108.154 23.704 107.882 23.8 107.338 23.8C107.242 23.8 106.986 23.784 106.57 23.752C106.154 23.72 105.578 23.704 104.842 23.704C104.554 23.704 104.242 23.712 103.906 23.728C103.586 23.76 103.394 23.776 103.33 23.776C102.978 23.776 102.754 23.76 102.658 23.728C102.562 23.696 102.514 23.632 102.514 23.536C102.514 23.392 102.586 23.288 102.73 23.224C102.89 23.16 103.066 23.104 103.258 23.056C103.45 23.008 103.618 22.808 103.762 22.456C103.922 22.12 104.002 21.624 104.002 20.968V20.488C104.002 18.6 104.01 17.032 104.026 15.784C104.058 14.536 104.074 13.896 104.074 13.864V13.336C104.074 12.008 104.01 11.128 103.882 10.696C103.77 10.248 103.458 10.024 102.946 10.024C102.674 10.024 102.506 10.008 102.442 9.976C102.378 9.928 102.346 9.856 102.346 9.76ZM105.658 14.392C105.658 14.552 105.658 14.752 105.658 14.992C105.674 15.232 105.682 15.432 105.682 15.592C105.682 16.152 105.802 16.632 106.042 17.032C106.282 17.432 106.586 17.736 106.954 17.944C107.338 18.136 107.714 18.28 108.082 18.376C108.466 18.456 108.842 18.496 109.21 18.496C110.25 18.496 111.042 18.12 111.586 17.368C112.146 16.6 112.426 15.664 112.426 14.56C112.426 13.296 112.082 12.184 111.394 11.224C110.722 10.264 109.81 9.784 108.658 9.784C107.842 9.784 107.114 10.04 106.474 10.552C106.138 10.808 105.914 11.16 105.802 11.608C105.706 12.04 105.658 12.968 105.658 14.392ZM115.277 2.368C115.277 2.272 115.285 2.2 115.301 2.152C115.333 2.104 115.389 2.064 115.469 2.032C115.549 1.984 115.637 1.952 115.733 1.936C115.845 1.904 116.013 1.856 116.237 1.792C116.461 1.712 116.685 1.624 116.909 1.528C117.037 1.48 117.237 1.392 117.509 1.264C117.781 1.136 118.013 1.04 118.205 0.975999C118.413 0.895999 118.589 0.855999 118.733 0.855999C118.925 0.855999 119.021 1.008 119.021 1.312C119.021 1.376 119.005 1.568 118.973 1.888C118.941 2.192 118.909 2.624 118.877 3.184C118.845 3.728 118.829 4.32 118.829 4.96V6.304C118.829 7.056 118.821 7.696 118.805 8.224C118.789 8.736 118.781 9.16 118.781 9.496V16.648C118.781 16.984 118.805 17.264 118.853 17.488C118.917 17.696 119.101 17.904 119.405 18.112C119.725 18.304 120.165 18.4 120.725 18.4C120.805 18.4 120.877 18.44 120.941 18.52C121.005 18.6 121.037 18.68 121.037 18.76C121.037 18.984 120.789 19.096 120.293 19.096C120.149 19.096 119.773 19.064 119.165 19C118.573 18.952 118.141 18.928 117.869 18.928C117.453 18.928 117.053 18.96 116.669 19.024C116.301 19.088 116.053 19.12 115.925 19.12C115.813 19.12 115.717 19.088 115.637 19.024C115.573 18.976 115.541 18.928 115.541 18.88C115.541 18.752 115.573 18.664 115.637 18.616C115.717 18.552 115.837 18.504 115.997 18.472C116.173 18.424 116.293 18.384 116.357 18.352C116.629 18.224 116.805 18.048 116.885 17.824C116.965 17.6 117.005 17.256 117.005 16.792C117.005 16.728 116.997 16.632 116.981 16.504C116.981 16.36 116.981 16.248 116.981 16.168V14.392C116.981 13.8 116.997 12.232 117.029 9.688C117.061 7.128 117.077 5.296 117.077 4.192C117.077 3.824 117.013 3.496 116.885 3.208C116.773 2.904 116.645 2.72 116.501 2.656C116.357 2.592 116.037 2.56 115.541 2.56C115.365 2.56 115.277 2.496 115.277 2.368ZM122.652 16.96C122.652 16.384 122.772 15.904 123.012 15.52C123.252 15.12 123.612 14.816 124.092 14.608C124.588 14.384 125.1 14.208 125.628 14.08C126.156 13.952 126.796 13.824 127.548 13.696C127.644 13.68 127.716 13.672 127.764 13.672C127.812 13.656 127.876 13.648 127.956 13.648C128.036 13.632 128.108 13.616 128.172 13.6C128.284 13.584 128.356 13.568 128.388 13.552C128.436 13.536 128.476 13.504 128.508 13.456C128.556 13.392 128.58 13.312 128.58 13.216C128.58 13.056 128.588 12.84 128.604 12.568C128.62 12.28 128.628 12.08 128.628 11.968C128.628 11.056 128.364 10.4 127.836 10C127.308 9.584 126.796 9.376 126.3 9.376C125.148 9.376 124.572 9.856 124.572 10.816C124.572 10.944 124.588 11.104 124.62 11.296C124.652 11.488 124.668 11.616 124.668 11.68C124.668 12 124.524 12.16 124.236 12.16C124.14 12.16 124.02 12.152 123.876 12.136C123.732 12.104 123.564 12.064 123.372 12.016C123.196 11.952 123.044 11.856 122.916 11.728C122.804 11.584 122.748 11.416 122.748 11.224C122.748 10.6 123.164 10.008 123.996 9.448C124.844 8.872 125.772 8.584 126.78 8.584C127.468 8.584 128.052 8.664 128.532 8.824C129.012 8.984 129.364 9.168 129.588 9.376C129.828 9.568 130.012 9.832 130.14 10.168C130.268 10.488 130.34 10.744 130.356 10.936C130.372 11.112 130.38 11.336 130.38 11.608C130.38 12.76 130.356 13.672 130.308 14.344C130.276 15 130.26 15.576 130.26 16.072C130.26 16.664 130.324 17.136 130.452 17.488C130.58 17.824 130.732 18.04 130.908 18.136C131.084 18.232 131.26 18.288 131.436 18.304C131.612 18.32 131.764 18.352 131.892 18.4C132.02 18.448 132.084 18.544 132.084 18.688C132.084 19.024 131.58 19.192 130.572 19.192C130.156 19.192 129.796 19.08 129.492 18.856C129.204 18.632 128.996 18.416 128.868 18.208C128.74 17.984 128.668 17.872 128.652 17.872C128.636 17.872 128.572 17.928 128.46 18.04C128.348 18.136 128.188 18.256 127.98 18.4C127.788 18.544 127.564 18.688 127.308 18.832C127.068 18.976 126.78 19.096 126.444 19.192C126.124 19.304 125.804 19.36 125.484 19.36C124.46 19.36 123.716 19.12 123.252 18.64C122.852 18.24 122.652 17.68 122.652 16.96ZM124.524 16.6C124.524 17.144 124.684 17.584 125.004 17.92C125.324 18.24 125.78 18.4 126.372 18.4C126.788 18.4 127.14 18.336 127.428 18.208C127.732 18.08 127.956 17.936 128.1 17.776C128.244 17.616 128.356 17.408 128.436 17.152C128.516 16.88 128.556 16.672 128.556 16.528C128.572 16.384 128.58 16.192 128.58 15.952V14.224C128.58 14.08 128.524 14.008 128.412 14.008C128.38 14.008 128.34 14.016 128.292 14.032C128.244 14.048 128.204 14.056 128.172 14.056C127.804 14.12 127.572 14.16 127.476 14.176C127.38 14.192 127.156 14.24 126.804 14.32C126.452 14.4 126.204 14.472 126.06 14.536C125.932 14.6 125.74 14.704 125.484 14.848C125.244 14.976 125.068 15.12 124.956 15.28C124.86 15.424 124.764 15.616 124.668 15.856C124.572 16.08 124.524 16.328 124.524 16.6ZM132.714 9.112C132.714 8.92 132.874 8.824 133.194 8.824C133.642 8.824 134.098 8.832 134.562 8.848C135.042 8.864 135.442 8.872 135.762 8.872C136.034 8.872 136.274 8.864 136.482 8.848C136.706 8.832 136.922 8.824 137.13 8.824C137.242 8.824 137.338 8.856 137.418 8.92C137.514 8.968 137.562 9.024 137.562 9.088C137.562 9.376 137.37 9.52 136.986 9.52H136.626C136.37 9.52 136.242 9.744 136.242 10.192C136.242 10.544 136.586 11.48 137.274 13C137.322 13.128 137.362 13.232 137.394 13.312C137.426 13.376 137.466 13.472 137.514 13.6C137.578 13.712 137.634 13.824 137.682 13.936C137.778 14.144 137.938 14.504 138.162 15.016C138.386 15.528 138.554 15.904 138.666 16.144C138.794 16.384 138.89 16.504 138.954 16.504C139.05 16.504 139.418 15.584 140.058 13.744C140.714 11.904 141.042 10.792 141.042 10.408C141.042 10.088 140.962 9.856 140.802 9.712C140.658 9.568 140.49 9.504 140.298 9.52C140.106 9.52 139.93 9.496 139.77 9.448C139.626 9.384 139.554 9.264 139.554 9.088C139.554 8.896 139.706 8.8 140.01 8.8C140.25 8.8 140.562 8.808 140.946 8.824C141.346 8.824 141.61 8.824 141.738 8.824C141.898 8.824 142.17 8.824 142.554 8.824C142.954 8.808 143.178 8.8 143.226 8.8C143.562 8.8 143.73 8.904 143.73 9.112C143.73 9.272 143.586 9.392 143.298 9.472C143.026 9.536 142.842 9.632 142.746 9.76C142.49 10.128 142.058 11.136 141.45 12.784L139.314 18.472C139.138 18.936 138.962 19.408 138.786 19.888C138.61 20.384 138.466 20.784 138.354 21.088C138.242 21.392 138.13 21.696 138.018 22C137.906 22.304 137.818 22.536 137.754 22.696C137.69 22.872 137.618 23.032 137.538 23.176C137.474 23.32 137.41 23.416 137.346 23.464C137.298 23.528 137.25 23.56 137.202 23.56C137.186 23.56 137.154 23.56 137.106 23.56C137.074 23.56 136.978 23.56 136.818 23.56C136.658 23.576 136.418 23.584 136.098 23.584C135.794 23.584 135.642 23.48 135.642 23.272C135.642 23.224 135.818 22.976 136.17 22.528C136.538 22.08 136.906 21.528 137.274 20.872C137.642 20.216 137.826 19.616 137.826 19.072C137.826 18.608 137.37 17.384 136.458 15.4C135.546 13.416 134.754 11.792 134.082 10.528C133.906 10.208 133.722 9.96 133.53 9.784C133.354 9.608 133.21 9.512 133.098 9.496C132.986 9.48 132.89 9.448 132.81 9.4C132.746 9.352 132.714 9.256 132.714 9.112Z" fill="black"/>
</svg>
