<svg width="153" height="34" viewBox="0 0 153 34" fill="none" xmlns="http://www.w3.org/2000/svg">
<g clip-path="url(#clip0_22871_304969)">
<path d="M12.8967 13.8516C11.1703 13.8516 9.75781 15.2641 9.75781 16.9905C9.75781 18.7169 11.1703 20.1294 12.8967 20.1294C14.6231 20.1294 16.0357 18.7169 16.0357 16.9905C16.0357 15.2641 14.6231 13.8516 12.8967 13.8516ZM12.8967 15.6826C12.8706 15.6826 12.8706 15.6826 12.8967 15.6826C12.1643 15.6826 11.5889 16.2842 11.5627 16.9905C11.5627 17.2259 11.3534 17.4352 11.118 17.4352C10.8826 17.4352 10.6733 17.2259 10.6733 16.9905C10.6733 15.7611 11.6673 14.7932 12.8706 14.7932C13.106 14.7932 13.3153 15.0025 13.3153 15.2379C13.3153 15.4733 13.1322 15.6826 12.8967 15.6826Z" fill="#014099"/>
<path d="M17.9651 23.3202C17.6251 23.2678 17.3373 23.5033 17.2588 23.8433C16.3172 27.8193 14.6169 29.7288 12.7336 29.7288C9.987 29.7288 7.89438 24.2095 7.89438 17.2777C7.89438 10.3459 9.85621 4.77433 12.6289 4.77433C13.7799 4.77433 14.6692 5.58522 15.5063 7.15468C15.6632 7.44242 15.9771 7.62552 16.291 7.62552C16.8926 7.62552 17.3112 7.05005 17.1542 6.47458C16.5526 4.27733 14.3553 2.8125 12.812 2.8125C9.14995 2.8125 6.16797 9.16883 6.16797 16.99C6.16797 24.8111 9.14995 31.1936 12.812 31.1936C15.2709 31.1936 17.3635 28.3424 18.4883 24.131C18.619 23.7387 18.3575 23.3463 17.9651 23.3202Z" fill="#014099"/>
<path d="M4.9957 18.525C5.20497 18.2635 5.15265 17.8973 4.91723 17.6618C1.93525 14.863 1.12436 12.4303 2.06604 10.8085C3.42624 8.42816 9.25941 9.36984 15.2757 12.8227C21.2658 16.2755 25.111 20.7746 23.7246 23.1811C23.1492 24.1751 21.9982 24.5413 20.2195 24.489C19.8795 24.4629 19.5917 24.646 19.4086 24.9337C19.1209 25.4568 19.4086 26.0846 19.9579 26.2416C22.1552 26.817 24.5355 25.6399 25.2941 24.3059C27.1251 21.1408 23.123 15.3861 16.322 11.4625C9.57331 7.5388 2.58919 6.93717 0.758151 10.1284C-0.471262 12.2472 0.941255 15.4907 4.05402 18.5774C4.3156 18.8651 4.76028 18.8389 4.9957 18.525Z" fill="#014099"/>
<path d="M15.615 9.6397C15.7458 9.95359 16.0858 10.0844 16.3997 10.0059C20.3234 8.82881 22.8345 9.35196 23.7762 10.9737C25.1364 13.3541 21.422 17.9317 15.4319 21.3845C9.41558 24.8635 3.60857 25.9621 2.22221 23.5294C1.64674 22.5093 1.90831 21.3322 2.84999 19.8674C3.0331 19.5796 3.0331 19.2396 2.84999 18.9518C2.5361 18.4548 1.856 18.3502 1.43747 18.7687C-0.158147 20.3905 -0.315094 23.0325 0.443481 24.3665C2.27452 27.5316 9.25864 26.93 16.0596 23.0325C22.8345 19.1088 26.8628 13.3541 25.0317 10.189C23.8023 8.07023 20.2972 7.67787 16.0596 8.80265C15.6673 8.88112 15.458 9.27349 15.615 9.6397Z" fill="#014099"/>
</g>
<g clip-path="url(#clip1_22871_304969)">
<path d="M85.4723 6.09567L85.1214 5.34375H82.9659L83.2666 6.09567H80.0083H78.5546H77.8528V7.64964L76.75 7.19849V9.35399L77.8528 9.80514V11.5095L76.75 11.9606V14.1161L77.8528 13.665V14.8681L76.8001 16.5223H78.9556L79.6073 15.4696C79.8579 15.0686 80.0083 14.5673 80.0083 14.066V7.34887H90.2846V6.09567H85.4723Z" fill="#014099"/>
<path d="M75.2489 10.7056H70.988V9.30199H74.898V7.99867H67.5292L67.7297 7.29688H65.6243L65.3737 7.99867L64.9727 9.30199H68.8826V10.7056H64.9727V12.0089H67.9803L65.2734 14.6156H67.4289L70.0857 12.0089H70.1358L72.7926 14.6156H74.9481L72.2913 12.0089H75.2489V10.7056Z" fill="#014099"/>
<path d="M35.1965 12.9679H36.4998V11.6646H35.1965V9.70958H36.4998V8.40625H31.6875V9.70958H33.041V11.6646H31.6875V12.9679H33.041V16.4769H36.199L36.6 15.1735H35.1965V12.9679Z" fill="#014099"/>
<path d="M63.0696 5.39844H62.1172V16.5269H75.6517V15.2235H64.2226V6.70177H75.6517V5.39844H64.2226H63.0696Z" fill="#014099"/>
<path d="M80.8672 9.55333H87.3337L85.4288 11.9595V15.2178H82.8222L82.4212 16.5211H87.5342V12.7114L90.0907 9.55333V8.25H80.8672V9.55333Z" fill="#014099"/>
<path d="M58.2512 6.04688H57.9003H57.0481H55.9453V16.3732H60.2563V6.04688H59.9054H58.2512ZM58.3013 15.12H57.8502V7.3502H58.3013V15.12Z" fill="#014099"/>
<path d="M53.4413 5.54688H51.386L51.2356 6.54943H50.4336V7.80263H51.0852L50.1328 16.4748H52.1881L53.1405 7.80263H53.4914V15.1714H52.8899L52.6893 16.4748H55.5466V7.80263V7.70238V6.54943H53.2909L53.4413 5.54688Z" fill="#014099"/>
<path d="M50.4373 5.39844H48.2818L46.8281 9.70944H47.7806V16.4767H49.8358V8.00509H49.535L50.4373 5.39844Z" fill="#014099"/>
<path d="M36.4998 6.20049H34.3944L34.7453 5.39844H32.5898L32.2389 6.20049L31.6875 7.50381H36.4998V6.20049Z" fill="#014099"/>
<path d="M43.5674 12.4112H44.9209V6.79688H37.0508V12.3611H38.0032L37.0508 16.4716H39.2063L40.1587 12.3611H41.5122V16.4716H44.971L45.372 15.1682H43.6677V12.4112H43.5674ZM42.8155 11.1079H39.1562V8.1002H42.8155V11.1079Z" fill="#014099"/>
<path d="M44.4237 5.39844H42.2682L41.8672 6.45113H44.0227L44.4237 5.39844Z" fill="#014099"/>
<path d="M40.1073 6.45113L39.7063 5.39844H37.5508L37.9518 6.45113H40.1073Z" fill="#014099"/>
</g>
<path d="M72.9999 26.2976C72.9999 27.0645 72.233 27.698 71.2661 27.698C70.2992 27.698 69.5323 27.0645 69.5323 26.2976V21.4297H67.3984V26.1309C67.3984 27.6313 68.8321 28.8316 70.6326 28.8316H71.9329C73.7001 28.8316 75.1671 27.5979 75.1671 26.1309V21.4297H73.0332V26.2976H72.9999Z" fill="#014099"/>
<path d="M37.3883 26.9644L34.6876 21.4297H32.3203L35.9546 28.8316H38.3218L41.9561 21.4297H40.1223L37.3883 26.9644Z" fill="#014099"/>
<path d="M50.2993 21.4297H45.0312V22.5633H49.4324C50.1992 22.5633 50.7994 23.0634 50.7994 23.6636C50.7994 24.2637 50.1992 24.7639 49.4324 24.7639H45.0312V28.8316H47.1651V25.8975H50.2659C51.733 25.8975 52.8999 24.8972 52.8999 23.6636C52.9333 22.4299 51.733 21.4297 50.2993 21.4297Z" fill="#014099"/>
<path d="M59.1612 21.4297H57.0273V28.8316H58.2277H59.1612H63.2623V27.698H59.1612V21.4297Z" fill="#014099"/>
<path d="M85.1765 24.5638H82.7759C82.0757 24.5638 81.5422 24.097 81.5422 23.5636C81.5422 23.0301 82.109 22.5633 82.7759 22.5633H87.277V21.4297H81.909C80.5086 21.4297 79.375 22.3966 79.375 23.5636C79.375 24.7305 80.5086 25.6974 81.909 25.6974H84.3096C85.0098 25.6974 85.5432 26.1642 85.5432 26.6977C85.5432 27.2645 84.9764 27.698 84.3096 27.698H79.8084V28.8316H85.1765C86.5768 28.8316 87.7105 27.8647 87.7105 26.6977C87.7105 25.5307 86.5435 24.5638 85.1765 24.5638Z" fill="#014099"/>
<line x1="104.887" y1="8" x2="104.887" y2="26" stroke="#333333"/>
<rect x="121" y="28.7422" width="27.9999" height="1.06464" rx="0.532318" fill="url(#paint0_linear_22871_304969)"/>
<path d="M129.38 6.06112C128.849 5.46696 128.168 5.02068 127.292 5.00084C126.514 4.98322 125.846 5.2434 125.32 5.75118C124.823 6.23199 124.51 6.87946 124.296 7.54922C123.875 8.86884 123.734 10.6377 123.606 12.3968C123.473 14.211 123.351 16.0883 123.01 17.8099C122.668 19.5361 122.128 20.9807 121.241 21.982C120.897 22.3697 120.925 22.9702 121.301 23.3234C121.678 23.6766 122.262 23.6488 122.605 23.2612C123.821 21.8886 124.451 20.0496 124.819 18.1893C125.189 16.3245 125.317 14.3118 125.447 12.5392C125.58 10.7117 125.714 9.19673 126.05 8.1417C126.215 7.62418 126.402 7.31159 126.585 7.13541C126.739 6.98618 126.931 6.8924 127.251 6.89966C127.474 6.90471 127.713 7.00132 128.02 7.34562C128.345 7.71027 128.676 8.27525 129.053 9.06329C129.764 10.546 130.642 12.8595 131.865 15.0814C133.124 17.3664 134.837 19.7518 137.414 21.6877C139.956 23.5973 143.292 25.0346 147.767 25.547L147.981 25.5707L148.029 25.5744C148.516 25.601 148.944 25.2296 148.995 24.7243C149.046 24.219 148.702 23.7652 148.22 23.688L148.172 23.6816L147.774 23.636C143.692 23.1382 140.727 21.8243 138.503 20.1539C136.202 18.4256 134.647 16.2794 133.472 14.1452C132.262 11.948 131.539 9.9549 130.709 8.22331C130.317 7.4042 129.892 6.63496 129.38 6.06112Z" fill="url(#paint1_linear_22871_304969)"/>
<defs>
<linearGradient id="paint0_linear_22871_304969" x1="123.492" y1="28.7906" x2="123.55" y2="30.6096" gradientUnits="userSpaceOnUse">
<stop stop-color="#F1D7C1"/>
<stop offset="1" stop-color="#BB8E66"/>
</linearGradient>
<linearGradient id="paint1_linear_22871_304969" x1="123.492" y1="5.93657" x2="139.208" y2="31.4448" gradientUnits="userSpaceOnUse">
<stop stop-color="#F1D7C1"/>
<stop offset="1" stop-color="#BB8E66"/>
</linearGradient>
<clipPath id="clip0_22871_304969">
<rect width="25.7654" height="28.3811" fill="white" transform="translate(0 2.8125)"/>
</clipPath>
<clipPath id="clip1_22871_304969">
<rect width="58.6999" height="11.1785" fill="white" transform="translate(31.6875 5.34375)"/>
</clipPath>
</defs>
</svg>
