<svg width="220" height="20" viewBox="0 0 220 20" fill="none" xmlns="http://www.w3.org/2000/svg">
<path d="M0.48 2.416C0.48 2.32 0.536 2.232 0.648 2.152C0.76 2.056 0.904 2.008 1.08 2.008C1.176 2.008 1.336 2.016 1.56 2.032C1.784 2.032 1.928 2.032 1.992 2.032C2.232 2.032 2.456 2.024 2.664 2.008C2.872 1.992 3.04 1.984 3.168 1.984C3.312 1.984 3.48 2.032 3.672 2.128C3.864 2.208 3.976 2.296 4.008 2.392C4.04 2.44 4.128 2.552 4.272 2.728C4.416 2.888 4.608 3.104 4.848 3.376C5.088 3.648 5.304 3.912 5.496 4.168C7.672 7 10.584 10.416 14.232 14.416C14.328 14.528 14.44 14.656 14.568 14.8C14.712 14.944 14.808 15.056 14.856 15.136C14.92 15.2 14.984 15.264 15.048 15.328C15.112 15.392 15.16 15.44 15.192 15.472C15.24 15.488 15.28 15.496 15.312 15.496C15.472 15.496 15.552 15 15.552 14.008V11.2C15.552 10.128 15.544 9.224 15.528 8.488C15.528 7.752 15.52 7.224 15.504 6.904C15.504 6.568 15.504 6.36 15.504 6.28V6.112C15.504 5.568 15.464 5.104 15.384 4.72C15.32 4.336 15.24 4.04 15.144 3.832C15.048 3.624 14.904 3.448 14.712 3.304C14.536 3.16 14.384 3.072 14.256 3.04C14.128 2.992 13.944 2.944 13.704 2.896C13.464 2.848 13.296 2.808 13.2 2.776C12.88 2.68 12.72 2.544 12.72 2.368C12.72 2.128 12.872 2.008 13.176 2.008C13.272 2.008 13.656 2.016 14.328 2.032C15 2.032 15.376 2.032 15.456 2.032C15.84 2.032 16.264 2.024 16.728 2.008C17.208 1.992 17.504 1.984 17.616 1.984C17.888 1.984 18.072 2.016 18.168 2.08C18.28 2.128 18.336 2.232 18.336 2.392C18.336 2.456 18.288 2.52 18.192 2.584C18.112 2.632 18.024 2.68 17.928 2.728C17.832 2.76 17.736 2.792 17.64 2.824L17.496 2.872C16.968 3.16 16.704 4.064 16.704 5.584V6.496C16.704 7.712 16.656 9.824 16.56 12.832C16.48 15.824 16.44 17.672 16.44 18.376V18.856C16.44 19.224 16.328 19.408 16.104 19.408C15.96 19.408 15.832 19.352 15.72 19.24C10.408 13.08 7.232 9.424 6.192 8.272C5.168 7.104 4.6 6.52 4.488 6.52C4.328 6.52 4.248 7.064 4.248 8.152C4.248 9.672 4.216 11.312 4.152 13.072C4.088 14.816 4.056 15.768 4.056 15.928C4.056 16.648 4.176 17.2 4.416 17.584C4.672 17.952 4.944 18.16 5.232 18.208C5.52 18.256 5.784 18.312 6.024 18.376C6.28 18.424 6.408 18.528 6.408 18.688C6.408 18.864 6.376 18.976 6.312 19.024C6.264 19.072 6.168 19.096 6.024 19.096C5.912 19.096 5.656 19.088 5.256 19.072C4.872 19.056 4.272 19.048 3.456 19.048C3.312 19.048 3.016 19.056 2.568 19.072C2.12 19.088 1.736 19.096 1.416 19.096C1.064 19.096 0.888 18.968 0.888 18.712C0.888 18.568 0.992 18.48 1.2 18.448C1.408 18.4 1.664 18.272 1.968 18.064C2.272 17.856 2.504 17.464 2.664 16.888C2.76 16.52 2.88 15.032 3.024 12.424C3.168 9.816 3.24 8.016 3.24 7.024C3.24 5.648 3.048 4.624 2.664 3.952C2.28 3.264 1.656 2.872 0.792 2.776C0.584 2.76 0.48 2.64 0.48 2.416ZM19.7563 14.128C19.7563 12.656 20.2523 11.376 21.2443 10.288C22.2523 9.2 23.6443 8.656 25.4203 8.656C26.9243 8.656 28.2283 9.128 29.3323 10.072C30.4523 11.016 31.0123 12.32 31.0123 13.984C31.0123 15.68 30.4363 17.016 29.2843 17.992C28.1483 18.952 26.8043 19.432 25.2523 19.432C23.5243 19.432 22.1723 18.912 21.1963 17.872C20.2363 16.816 19.7563 15.568 19.7563 14.128ZM21.6523 13.312C21.6523 14.96 22.0923 16.272 22.9723 17.248C23.8523 18.224 24.8523 18.712 25.9723 18.712C26.8843 18.712 27.6523 18.368 28.2763 17.68C28.9003 16.976 29.2123 15.984 29.2123 14.704C29.2123 13.296 28.8283 12.048 28.0603 10.96C27.2923 9.856 26.2203 9.304 24.8443 9.304C24.0123 9.304 23.2683 9.632 22.6123 10.288C21.9723 10.944 21.6523 11.952 21.6523 13.312ZM32.4761 9.784C32.4761 9.688 32.5001 9.608 32.5481 9.544C32.6121 9.464 32.6921 9.392 32.7881 9.328C32.8841 9.264 33.0201 9.16 33.1961 9.016C33.3881 8.856 33.5721 8.68 33.7481 8.488C33.9881 8.232 34.2361 7.928 34.4921 7.576C34.7641 7.208 34.9721 6.944 35.1161 6.784C35.2761 6.608 35.4281 6.52 35.5721 6.52C35.7481 6.52 35.8361 6.704 35.8361 7.072C35.8361 7.216 35.8201 7.44 35.7881 7.744C35.7561 8.048 35.7401 8.28 35.7401 8.44C35.7401 8.664 35.7801 8.8 35.8601 8.848C35.9561 8.896 36.2441 8.92 36.7241 8.92H37.5641C37.9161 8.92 38.2121 8.904 38.4521 8.872C38.7081 8.84 38.8841 8.8 38.9801 8.752C39.0761 8.704 39.1561 8.664 39.2201 8.632C39.3001 8.6 39.3641 8.584 39.4121 8.584C39.5721 8.584 39.6521 8.672 39.6521 8.848C39.6521 8.976 39.5481 9.232 39.3401 9.616C39.1321 9.984 38.9801 10.168 38.8841 10.168C38.6441 10.168 38.4121 10.168 38.1881 10.168C37.9641 10.152 37.7721 10.144 37.6121 10.144C37.4521 10.128 37.3001 10.112 37.1561 10.096C37.0121 10.08 36.8921 10.072 36.7961 10.072C36.7001 10.056 36.6121 10.048 36.5321 10.048C36.4681 10.032 36.4201 10.024 36.3881 10.024L36.3401 10C36.0361 10 35.8361 10.048 35.7401 10.144C35.6601 10.24 35.6201 10.456 35.6201 10.792C35.6201 10.968 35.6041 11.64 35.5721 12.808C35.5401 13.96 35.5241 14.776 35.5241 15.256C35.5241 16.296 35.6521 17.024 35.9081 17.44C36.1801 17.84 36.7401 18.04 37.5881 18.04C37.9241 18.04 38.2921 17.968 38.6921 17.824C39.1081 17.664 39.3321 17.584 39.3641 17.584C39.5241 17.584 39.6041 17.68 39.6041 17.872C39.6041 18.096 39.3241 18.384 38.7641 18.736C38.2201 19.072 37.6281 19.24 36.9881 19.24C34.8281 19.24 33.7481 18.304 33.7481 16.432V16.072C33.7481 15.448 33.7561 14.688 33.7721 13.792C33.7881 12.896 33.8041 12.128 33.8201 11.488C33.8361 10.832 33.8441 10.496 33.8441 10.48C33.8441 10.32 33.8121 10.216 33.7481 10.168C33.6841 10.12 33.5481 10.096 33.3401 10.096C33.2761 10.096 33.1881 10.104 33.0761 10.12C32.9801 10.12 32.9161 10.12 32.8841 10.12C32.6121 10.12 32.4761 10.008 32.4761 9.784ZM40.9673 14.344C40.9673 12.744 41.4153 11.392 42.3113 10.288C43.2233 9.184 44.3993 8.632 45.8393 8.632C46.5113 8.632 47.1193 8.752 47.6633 8.992C48.2233 9.232 48.6553 9.528 48.9593 9.88C49.2633 10.216 49.5193 10.576 49.7273 10.96C49.9353 11.344 50.0713 11.664 50.1353 11.92C50.2153 12.16 50.2553 12.336 50.2553 12.448C50.2553 12.736 49.9273 12.88 49.2713 12.88H43.8233H43.1033C42.9753 12.88 42.8953 12.896 42.8633 12.928C42.8473 12.944 42.8393 13.016 42.8393 13.144C42.8393 14.648 43.2393 15.832 44.0393 16.696C44.8553 17.56 45.8073 17.992 46.8953 17.992C47.5673 17.992 48.2473 17.816 48.9353 17.464C49.6393 17.096 50.0073 16.912 50.0393 16.912C50.1993 16.912 50.2793 16.984 50.2793 17.128C50.2793 17.192 50.2233 17.312 50.1113 17.488C49.9993 17.648 49.8233 17.84 49.5833 18.064C49.3433 18.288 49.0633 18.504 48.7433 18.712C48.4233 18.92 48.0233 19.096 47.5433 19.24C47.0633 19.384 46.5593 19.456 46.0312 19.456C44.6233 19.456 43.4233 19.024 42.4313 18.16C41.4553 17.296 40.9673 16.024 40.9673 14.344ZM42.9833 11.968C42.9833 12.192 43.0873 12.304 43.2953 12.304C43.7273 12.304 44.5193 12.28 45.6713 12.232C46.8233 12.184 47.4393 12.16 47.5193 12.16C47.7433 12.16 47.8793 12.144 47.9273 12.112C47.9913 12.064 48.0233 11.984 48.0233 11.872C48.0233 11.392 47.7993 10.832 47.3513 10.192C46.9033 9.552 46.2633 9.232 45.4313 9.232C44.6633 9.232 44.0633 9.552 43.6313 10.192C43.1993 10.816 42.9833 11.408 42.9833 11.968ZM52.5309 17.968V15.88C52.5309 15.704 52.5629 15.56 52.6269 15.448C52.7069 15.32 52.7949 15.256 52.8909 15.256C53.0509 15.256 53.1549 15.296 53.2029 15.376C53.2669 15.44 53.3229 15.584 53.3709 15.808C53.4189 16.032 53.4669 16.192 53.5149 16.288C54.1069 17.76 54.9389 18.496 56.0109 18.496C56.5069 18.496 56.9789 18.368 57.4269 18.112C57.8749 17.84 58.0989 17.4 58.0989 16.792C58.0989 16.264 57.9149 15.824 57.5469 15.472C57.1789 15.12 56.7309 14.848 56.2029 14.656C55.6749 14.448 55.1469 14.24 54.6189 14.032C54.0909 13.808 53.6429 13.488 53.2749 13.072C52.9069 12.64 52.7229 12.104 52.7229 11.464C52.7229 10.568 53.0829 9.848 53.8029 9.304C54.5229 8.76 55.3709 8.488 56.3469 8.488C57.0989 8.488 57.6989 8.56 58.1469 8.704C58.5949 8.832 58.8589 8.952 58.9389 9.064C59.0349 9.176 59.0829 9.28 59.0829 9.376C59.0829 9.392 59.0989 9.608 59.1309 10.024C59.1629 10.44 59.1789 10.704 59.1789 10.816C59.1789 11.088 59.1469 11.272 59.0829 11.368C59.0189 11.464 58.9069 11.512 58.7469 11.512C58.6669 11.512 58.5549 11.4 58.4109 11.176C58.2829 10.936 58.1309 10.68 57.9549 10.408C57.7949 10.136 57.5229 9.888 57.1389 9.664C56.7709 9.424 56.3389 9.304 55.8429 9.304C55.3789 9.304 54.9949 9.424 54.6909 9.664C54.3869 9.888 54.2349 10.176 54.2349 10.528C54.2349 10.72 54.2589 10.904 54.3069 11.08C54.3549 11.24 54.4349 11.384 54.5469 11.512C54.6749 11.64 54.7789 11.752 54.8589 11.848C54.9549 11.928 55.1069 12.016 55.3149 12.112C55.5229 12.208 55.6749 12.28 55.7709 12.328C55.8829 12.36 56.0589 12.424 56.2989 12.52C56.5549 12.6 56.7229 12.656 56.8029 12.688C57.9549 13.12 58.7309 13.576 59.1309 14.056C59.5309 14.52 59.7309 15.216 59.7309 16.144C59.7309 17.04 59.3069 17.872 58.4589 18.64C57.8829 19.136 57.0909 19.384 56.0829 19.384C55.7949 19.384 55.4909 19.352 55.1709 19.288C54.8509 19.224 54.5949 19.16 54.4029 19.096C54.2269 19.048 54.0189 18.976 53.7789 18.88C53.5389 18.784 53.4109 18.736 53.3949 18.736C53.3309 18.72 53.2509 18.696 53.1549 18.664C53.0749 18.632 53.0109 18.616 52.9629 18.616C52.9309 18.6 52.8829 18.576 52.8189 18.544C52.7549 18.512 52.7069 18.488 52.6749 18.472C52.6589 18.44 52.6349 18.4 52.6029 18.352C52.5709 18.304 52.5469 18.248 52.5309 18.184C52.5309 18.12 52.5309 18.048 52.5309 17.968ZM72.0036 16.96C72.0036 16.384 72.1236 15.904 72.3636 15.52C72.6036 15.12 72.9636 14.816 73.4436 14.608C73.9396 14.384 74.4516 14.208 74.9796 14.08C75.5076 13.952 76.1476 13.824 76.8996 13.696C76.9956 13.68 77.0676 13.672 77.1156 13.672C77.1636 13.656 77.2276 13.648 77.3076 13.648C77.3876 13.632 77.4596 13.616 77.5236 13.6C77.6356 13.584 77.7076 13.568 77.7396 13.552C77.7876 13.536 77.8276 13.504 77.8596 13.456C77.9076 13.392 77.9316 13.312 77.9316 13.216C77.9316 13.056 77.9396 12.84 77.9556 12.568C77.9716 12.28 77.9796 12.08 77.9796 11.968C77.9796 11.056 77.7156 10.4 77.1876 10C76.6596 9.584 76.1476 9.376 75.6516 9.376C74.4996 9.376 73.9236 9.856 73.9236 10.816C73.9236 10.944 73.9396 11.104 73.9716 11.296C74.0036 11.488 74.0196 11.616 74.0196 11.68C74.0196 12 73.8756 12.16 73.5876 12.16C73.4916 12.16 73.3716 12.152 73.2276 12.136C73.0836 12.104 72.9156 12.064 72.7236 12.016C72.5476 11.952 72.3956 11.856 72.2676 11.728C72.1556 11.584 72.0996 11.416 72.0996 11.224C72.0996 10.6 72.5156 10.008 73.3476 9.448C74.1956 8.872 75.1236 8.584 76.1316 8.584C76.8196 8.584 77.4036 8.664 77.8836 8.824C78.3636 8.984 78.7156 9.168 78.9396 9.376C79.1796 9.568 79.3636 9.832 79.4916 10.168C79.6196 10.488 79.6916 10.744 79.7076 10.936C79.7236 11.112 79.7316 11.336 79.7316 11.608C79.7316 12.76 79.7076 13.672 79.6596 14.344C79.6276 15 79.6116 15.576 79.6116 16.072C79.6116 16.664 79.6756 17.136 79.8036 17.488C79.9316 17.824 80.0836 18.04 80.2596 18.136C80.4356 18.232 80.6116 18.288 80.7876 18.304C80.9636 18.32 81.1156 18.352 81.2436 18.4C81.3716 18.448 81.4356 18.544 81.4356 18.688C81.4356 19.024 80.9316 19.192 79.9236 19.192C79.5076 19.192 79.1476 19.08 78.8436 18.856C78.5556 18.632 78.3476 18.416 78.2196 18.208C78.0916 17.984 78.0196 17.872 78.0036 17.872C77.9876 17.872 77.9236 17.928 77.8116 18.04C77.6996 18.136 77.5396 18.256 77.3316 18.4C77.1396 18.544 76.9156 18.688 76.6596 18.832C76.4196 18.976 76.1316 19.096 75.7956 19.192C75.4756 19.304 75.1556 19.36 74.8356 19.36C73.8116 19.36 73.0676 19.12 72.6036 18.64C72.2036 18.24 72.0036 17.68 72.0036 16.96ZM73.8756 16.6C73.8756 17.144 74.0356 17.584 74.3556 17.92C74.6756 18.24 75.1316 18.4 75.7236 18.4C76.1396 18.4 76.4916 18.336 76.7796 18.208C77.0836 18.08 77.3076 17.936 77.4516 17.776C77.5956 17.616 77.7076 17.408 77.7876 17.152C77.8676 16.88 77.9076 16.672 77.9076 16.528C77.9236 16.384 77.9316 16.192 77.9316 15.952V14.224C77.9316 14.08 77.8756 14.008 77.7636 14.008C77.7316 14.008 77.6916 14.016 77.6436 14.032C77.5956 14.048 77.5556 14.056 77.5236 14.056C77.1556 14.12 76.9236 14.16 76.8276 14.176C76.7316 14.192 76.5076 14.24 76.1556 14.32C75.8036 14.4 75.5556 14.472 75.4116 14.536C75.2836 14.6 75.0916 14.704 74.8356 14.848C74.5956 14.976 74.4196 15.12 74.3076 15.28C74.2116 15.424 74.1156 15.616 74.0196 15.856C73.9236 16.08 73.8756 16.328 73.8756 16.6ZM82.6581 9.64C82.6581 9.544 82.7061 9.472 82.8021 9.424C82.9141 9.376 83.0901 9.336 83.3301 9.304C83.5701 9.272 83.7381 9.24 83.8341 9.208C84.1381 9.128 84.4501 9.024 84.7701 8.896C85.1061 8.752 85.3701 8.632 85.5621 8.536C85.7701 8.44 85.9061 8.392 85.9701 8.392H86.0181C86.1621 8.392 86.2341 8.488 86.2341 8.68C86.2341 8.712 86.2261 8.856 86.2101 9.112C86.1941 9.368 86.1861 9.568 86.1861 9.712C86.1861 10.128 86.2261 10.336 86.3061 10.336C86.3541 10.336 86.4101 10.296 86.4741 10.216C86.5381 10.12 86.6501 9.992 86.8101 9.832C86.9861 9.656 87.1941 9.496 87.4341 9.352C88.1541 8.904 88.8501 8.68 89.5221 8.68C90.1621 8.68 90.7381 8.784 91.2501 8.992C91.7621 9.184 92.1621 9.432 92.4501 9.736C92.7381 10.024 92.9781 10.36 93.1701 10.744C93.3621 11.128 93.4901 11.48 93.5541 11.8C93.6181 12.12 93.6501 12.424 93.6501 12.712C93.6501 12.776 93.6501 12.856 93.6501 12.952C93.6501 13.032 93.6501 13.144 93.6501 13.288C93.6661 13.416 93.6741 13.728 93.6741 14.224C93.6741 14.72 93.6741 15.36 93.6741 16.144V16.672C93.6741 17.28 93.7541 17.704 93.9141 17.944C94.0901 18.168 94.4981 18.328 95.1381 18.424C95.4581 18.472 95.6181 18.592 95.6181 18.784C95.6181 18.944 95.4581 19.024 95.1381 19.024C94.7701 19.024 94.3861 19.008 93.9861 18.976C93.5861 18.928 93.3141 18.904 93.1701 18.904C92.9461 18.904 92.5941 18.92 92.1141 18.952C91.6501 18.984 91.3861 19 91.3221 19C91.0021 19 90.8421 18.896 90.8421 18.688C90.8421 18.608 90.8661 18.544 90.9141 18.496C90.9781 18.448 91.0421 18.416 91.1061 18.4C91.1861 18.384 91.2581 18.368 91.3221 18.352L91.4421 18.328C91.7941 18.216 91.9701 17.68 91.9701 16.72V13.48C91.9701 12.248 91.6661 11.32 91.0581 10.696C90.4501 10.056 89.7221 9.736 88.8741 9.736C88.1861 9.736 87.5861 9.92 87.0741 10.288C86.5621 10.656 86.2661 10.96 86.1861 11.2C86.0421 11.6 85.9701 12.864 85.9701 14.992V15.904C85.9701 16.704 86.0501 17.296 86.2101 17.68C86.3861 18.064 86.7621 18.28 87.3381 18.328C87.4981 18.328 87.6981 18.36 87.9381 18.424C88.1941 18.472 88.3221 18.56 88.3221 18.688C88.3221 18.896 88.1701 19 87.8661 19C87.5941 19 87.3301 18.984 87.0741 18.952C86.8181 18.92 86.4981 18.904 86.1141 18.904C85.6981 18.904 85.1461 18.92 84.4581 18.952L83.4261 19C83.1861 19 83.0661 18.92 83.0661 18.76C83.0661 18.632 83.1061 18.552 83.1861 18.52C83.2661 18.488 83.3621 18.464 83.4741 18.448C83.6021 18.432 83.7221 18.384 83.8341 18.304C83.9621 18.224 84.0741 18.032 84.1701 17.728C84.2661 17.408 84.3221 16.984 84.3381 16.456C84.3701 15.56 84.3861 14.96 84.3861 14.656V11.2C84.3861 10.688 84.2901 10.344 84.0981 10.168C83.9221 9.992 83.6741 9.904 83.3541 9.904H83.1141C82.8101 9.904 82.6581 9.816 82.6581 9.64ZM96.7954 14.32C96.7954 12.768 97.3074 11.408 98.3314 10.24C99.3714 9.072 100.803 8.488 102.627 8.488C103.043 8.488 103.587 8.608 104.259 8.848C104.947 9.072 105.315 9.184 105.363 9.184C105.443 9.184 105.483 8.896 105.483 8.32C105.483 7.104 105.491 6.312 105.507 5.944C105.523 5.56 105.531 5.32 105.531 5.224C105.531 4.712 105.523 4.336 105.507 4.096C105.491 3.856 105.443 3.592 105.363 3.304C105.299 3.016 105.171 2.816 104.979 2.704C104.803 2.592 104.563 2.536 104.259 2.536H103.995C103.755 2.536 103.611 2.528 103.563 2.512C103.515 2.496 103.491 2.44 103.491 2.344V2.32C103.491 2.208 103.571 2.128 103.731 2.08C103.891 2.016 104.211 1.912 104.691 1.768C105.187 1.608 105.691 1.408 106.203 1.168C106.251 1.152 106.347 1.112 106.491 1.048C106.635 0.967999 106.755 0.911999 106.851 0.879999C106.963 0.831999 107.059 0.808 107.139 0.808C107.331 0.808 107.427 0.967999 107.427 1.288C107.427 1.336 107.371 2.016 107.259 3.328C107.163 4.64 107.115 5.696 107.115 6.496C107.115 8.144 107.107 9.928 107.091 11.848C107.075 13.768 107.067 14.904 107.067 15.256C107.067 16.344 107.115 17.072 107.211 17.44C107.323 17.808 107.555 18.048 107.907 18.16C107.955 18.176 108.091 18.208 108.315 18.256C108.539 18.288 108.699 18.336 108.795 18.4C108.891 18.448 108.939 18.536 108.939 18.664C108.939 18.856 108.323 19 107.091 19.096C106.835 19.112 106.539 19.152 106.203 19.216C105.867 19.296 105.659 19.336 105.579 19.336C105.403 19.336 105.315 19.248 105.315 19.072C105.315 19.024 105.299 18.904 105.267 18.712C105.251 18.52 105.243 18.344 105.243 18.184C105.243 17.912 105.171 17.776 105.027 17.776C104.979 17.776 104.859 17.856 104.667 18.016C104.491 18.176 104.283 18.36 104.043 18.568C103.803 18.76 103.451 18.936 102.987 19.096C102.539 19.256 102.051 19.336 101.523 19.336C100.035 19.336 98.8754 18.848 98.0434 17.872C97.2114 16.88 96.7954 15.696 96.7954 14.32ZM98.5234 13.192C98.5234 14.408 98.8914 15.528 99.6274 16.552C100.379 17.576 101.339 18.088 102.507 18.088C103.227 18.088 103.883 17.904 104.475 17.536C105.067 17.168 105.363 16.72 105.363 16.192L105.387 12.088C105.387 11.112 105.163 10.496 104.715 10.24C103.531 9.536 102.579 9.184 101.859 9.184C100.819 9.184 100.003 9.568 99.4114 10.336C98.8194 11.088 98.5234 12.04 98.5234 13.192ZM125.814 11.224C125.814 9.48 126.15 7.912 126.822 6.52C127.494 5.128 128.526 4.008 129.918 3.16C131.326 2.296 132.99 1.864 134.91 1.864C135.886 1.864 136.87 2.008 137.862 2.296C138.854 2.584 139.646 2.872 140.238 3.16L141.126 3.616C141.174 3.616 141.254 3.576 141.366 3.496C141.478 3.416 141.566 3.376 141.63 3.376C141.71 3.376 141.79 3.408 141.87 3.472C141.95 3.536 141.99 3.632 141.99 3.76C142.006 4.224 142.038 4.72 142.086 5.248C142.15 5.76 142.206 6.184 142.254 6.52C142.302 6.856 142.326 7.056 142.326 7.12C142.326 7.408 142.23 7.552 142.038 7.552C141.894 7.552 141.758 7.44 141.63 7.216C140.078 4.304 137.838 2.848 134.91 2.848C132.91 2.848 131.27 3.488 129.99 4.768C128.71 6.048 128.07 7.72 128.07 9.784C128.07 10.92 128.214 11.984 128.502 12.976C128.806 13.968 129.254 14.88 129.846 15.712C130.454 16.528 131.286 17.176 132.342 17.656C133.398 18.136 134.63 18.376 136.038 18.376C138.342 18.376 140.278 17.176 141.846 14.776C141.91 14.664 142.03 14.608 142.206 14.608C142.35 14.608 142.422 14.72 142.422 14.944C142.422 15.12 142.39 15.36 142.326 15.664C142.278 15.952 142.214 16.28 142.134 16.648C142.054 17 142.006 17.216 141.99 17.296C141.958 17.472 141.83 17.616 141.606 17.728C140.742 18.144 140.062 18.456 139.566 18.664C139.086 18.872 138.47 19.056 137.718 19.216C136.966 19.392 136.198 19.48 135.414 19.48C134.022 19.48 132.766 19.312 131.646 18.976C130.526 18.64 129.606 18.2 128.886 17.656C128.182 17.112 127.59 16.48 127.11 15.76C126.63 15.024 126.294 14.288 126.102 13.552C125.91 12.8 125.814 12.024 125.814 11.224ZM144.918 16.96C144.918 16.384 145.038 15.904 145.278 15.52C145.518 15.12 145.878 14.816 146.358 14.608C146.854 14.384 147.366 14.208 147.894 14.08C148.422 13.952 149.062 13.824 149.814 13.696C149.91 13.68 149.982 13.672 150.03 13.672C150.078 13.656 150.142 13.648 150.222 13.648C150.302 13.632 150.374 13.616 150.438 13.6C150.55 13.584 150.622 13.568 150.654 13.552C150.702 13.536 150.742 13.504 150.774 13.456C150.822 13.392 150.846 13.312 150.846 13.216C150.846 13.056 150.854 12.84 150.87 12.568C150.886 12.28 150.894 12.08 150.894 11.968C150.894 11.056 150.63 10.4 150.102 10C149.574 9.584 149.062 9.376 148.566 9.376C147.414 9.376 146.838 9.856 146.838 10.816C146.838 10.944 146.854 11.104 146.886 11.296C146.918 11.488 146.934 11.616 146.934 11.68C146.934 12 146.79 12.16 146.502 12.16C146.406 12.16 146.286 12.152 146.142 12.136C145.998 12.104 145.83 12.064 145.638 12.016C145.462 11.952 145.31 11.856 145.182 11.728C145.07 11.584 145.014 11.416 145.014 11.224C145.014 10.6 145.43 10.008 146.262 9.448C147.11 8.872 148.038 8.584 149.046 8.584C149.734 8.584 150.318 8.664 150.798 8.824C151.278 8.984 151.63 9.168 151.854 9.376C152.094 9.568 152.278 9.832 152.406 10.168C152.534 10.488 152.606 10.744 152.622 10.936C152.638 11.112 152.646 11.336 152.646 11.608C152.646 12.76 152.622 13.672 152.574 14.344C152.542 15 152.526 15.576 152.526 16.072C152.526 16.664 152.59 17.136 152.718 17.488C152.846 17.824 152.998 18.04 153.174 18.136C153.35 18.232 153.526 18.288 153.702 18.304C153.878 18.32 154.03 18.352 154.158 18.4C154.286 18.448 154.35 18.544 154.35 18.688C154.35 19.024 153.846 19.192 152.838 19.192C152.422 19.192 152.062 19.08 151.758 18.856C151.47 18.632 151.262 18.416 151.134 18.208C151.006 17.984 150.934 17.872 150.918 17.872C150.902 17.872 150.838 17.928 150.726 18.04C150.614 18.136 150.454 18.256 150.246 18.4C150.054 18.544 149.83 18.688 149.574 18.832C149.334 18.976 149.046 19.096 148.71 19.192C148.39 19.304 148.07 19.36 147.75 19.36C146.726 19.36 145.982 19.12 145.518 18.64C145.118 18.24 144.918 17.68 144.918 16.96ZM146.79 16.6C146.79 17.144 146.95 17.584 147.27 17.92C147.59 18.24 148.046 18.4 148.638 18.4C149.054 18.4 149.406 18.336 149.694 18.208C149.998 18.08 150.222 17.936 150.366 17.776C150.51 17.616 150.622 17.408 150.702 17.152C150.782 16.88 150.822 16.672 150.822 16.528C150.838 16.384 150.846 16.192 150.846 15.952V14.224C150.846 14.08 150.79 14.008 150.678 14.008C150.646 14.008 150.606 14.016 150.558 14.032C150.51 14.048 150.47 14.056 150.438 14.056C150.07 14.12 149.838 14.16 149.742 14.176C149.646 14.192 149.422 14.24 149.07 14.32C148.718 14.4 148.47 14.472 148.326 14.536C148.198 14.6 148.006 14.704 147.75 14.848C147.51 14.976 147.334 15.12 147.222 15.28C147.126 15.424 147.03 15.616 146.934 15.856C146.838 16.08 146.79 16.328 146.79 16.6ZM155.196 9.544C155.196 9.432 155.228 9.344 155.292 9.28C155.372 9.2 155.532 9.136 155.772 9.088C156.012 9.04 156.356 9.016 156.804 9.016C156.916 9.016 157.164 9 157.548 8.968C157.932 8.92 158.14 8.896 158.172 8.896C158.444 8.896 158.604 8.952 158.652 9.064C158.7 9.176 158.724 9.52 158.724 10.096C158.724 10.416 158.7 10.968 158.652 11.752C158.62 12.52 158.604 13.376 158.604 14.32C158.604 15.728 158.876 16.728 159.42 17.32C159.964 17.896 160.58 18.184 161.268 18.184C162.292 18.184 163.036 17.968 163.5 17.536C163.964 17.104 164.196 16.344 164.196 15.256L164.148 11.944C164.148 11.144 164.084 10.608 163.956 10.336C163.828 10.048 163.524 9.88 163.044 9.832C162.692 9.8 162.516 9.696 162.516 9.52C162.516 9.152 163.22 8.968 164.628 8.968C164.756 8.968 164.916 8.952 165.108 8.92C165.3 8.872 165.428 8.848 165.492 8.848C165.732 8.848 165.884 8.888 165.948 8.968C166.028 9.048 166.068 9.232 166.068 9.52C166.068 9.536 166.06 9.664 166.044 9.904C166.044 10.128 166.036 10.432 166.02 10.816C166.02 11.2 166.012 11.632 165.996 12.112C165.98 12.592 165.964 13.152 165.948 13.792C165.948 14.416 165.948 15.032 165.948 15.64C165.948 16.616 165.996 17.28 166.092 17.632C166.188 17.984 166.364 18.16 166.62 18.16C166.7 18.16 166.804 18.16 166.932 18.16C167.076 18.144 167.18 18.136 167.244 18.136C167.628 18.136 167.82 18.24 167.82 18.448C167.82 18.624 167.764 18.736 167.652 18.784C167.54 18.832 167.3 18.856 166.932 18.856C166.66 18.856 166.196 18.904 165.54 19C164.9 19.08 164.556 19.12 164.508 19.12C164.396 19.12 164.3 18.92 164.22 18.52C164.156 18.104 164.108 17.896 164.076 17.896C164.06 17.896 163.908 18.024 163.62 18.28C163.332 18.536 162.916 18.792 162.372 19.048C161.844 19.304 161.26 19.432 160.62 19.432C158.044 19.432 156.756 18.04 156.756 15.256C156.756 13.704 156.756 12.608 156.756 11.968C156.772 11.312 156.78 10.968 156.78 10.936C156.78 10.616 156.692 10.36 156.516 10.168C156.356 9.976 156.204 9.88 156.06 9.88H155.628C155.34 9.88 155.196 9.768 155.196 9.544ZM168.976 9.784C168.976 9.688 169 9.608 169.048 9.544C169.112 9.464 169.192 9.392 169.288 9.328C169.384 9.264 169.52 9.16 169.696 9.016C169.888 8.856 170.072 8.68 170.248 8.488C170.488 8.232 170.736 7.928 170.992 7.576C171.264 7.208 171.472 6.944 171.616 6.784C171.776 6.608 171.928 6.52 172.072 6.52C172.248 6.52 172.336 6.704 172.336 7.072C172.336 7.216 172.32 7.44 172.288 7.744C172.256 8.048 172.24 8.28 172.24 8.44C172.24 8.664 172.28 8.8 172.36 8.848C172.456 8.896 172.744 8.92 173.224 8.92H174.064C174.416 8.92 174.712 8.904 174.952 8.872C175.208 8.84 175.384 8.8 175.48 8.752C175.576 8.704 175.656 8.664 175.72 8.632C175.8 8.6 175.864 8.584 175.912 8.584C176.072 8.584 176.152 8.672 176.152 8.848C176.152 8.976 176.048 9.232 175.84 9.616C175.632 9.984 175.48 10.168 175.384 10.168C175.144 10.168 174.912 10.168 174.688 10.168C174.464 10.152 174.272 10.144 174.112 10.144C173.952 10.128 173.8 10.112 173.656 10.096C173.512 10.08 173.392 10.072 173.296 10.072C173.2 10.056 173.112 10.048 173.032 10.048C172.968 10.032 172.92 10.024 172.888 10.024L172.84 10C172.536 10 172.336 10.048 172.24 10.144C172.16 10.24 172.12 10.456 172.12 10.792C172.12 10.968 172.104 11.64 172.072 12.808C172.04 13.96 172.024 14.776 172.024 15.256C172.024 16.296 172.152 17.024 172.408 17.44C172.68 17.84 173.24 18.04 174.088 18.04C174.424 18.04 174.792 17.968 175.192 17.824C175.608 17.664 175.832 17.584 175.864 17.584C176.024 17.584 176.104 17.68 176.104 17.872C176.104 18.096 175.824 18.384 175.264 18.736C174.72 19.072 174.128 19.24 173.488 19.24C171.328 19.24 170.248 18.304 170.248 16.432V16.072C170.248 15.448 170.256 14.688 170.272 13.792C170.288 12.896 170.304 12.128 170.32 11.488C170.336 10.832 170.344 10.496 170.344 10.48C170.344 10.32 170.312 10.216 170.248 10.168C170.184 10.12 170.048 10.096 169.84 10.096C169.776 10.096 169.688 10.104 169.576 10.12C169.48 10.12 169.416 10.12 169.384 10.12C169.112 10.12 168.976 10.008 168.976 9.784ZM177.395 9.856C177.395 9.776 177.411 9.712 177.443 9.664C177.491 9.616 177.571 9.568 177.683 9.52C177.811 9.456 177.939 9.408 178.067 9.376C178.195 9.328 178.379 9.264 178.619 9.184C178.875 9.088 179.115 8.992 179.339 8.896C179.515 8.816 179.675 8.744 179.819 8.68C179.979 8.616 180.083 8.576 180.131 8.56C180.179 8.528 180.235 8.504 180.299 8.488C180.363 8.472 180.443 8.464 180.539 8.464C180.779 8.464 180.899 8.616 180.899 8.92C180.899 9 180.875 9.176 180.827 9.448C180.779 9.72 180.755 9.928 180.755 10.072V16.648C180.755 17.128 180.827 17.504 180.971 17.776C181.131 18.048 181.291 18.216 181.451 18.28C181.627 18.344 181.843 18.384 182.099 18.4C182.291 18.416 182.419 18.432 182.483 18.448C182.547 18.448 182.619 18.472 182.699 18.52C182.779 18.568 182.819 18.648 182.819 18.76C182.819 19.032 182.683 19.168 182.411 19.168C182.379 19.168 182.323 19.16 182.243 19.144C182.163 19.144 182.099 19.144 182.051 19.144C181.699 19.144 181.403 19.136 181.163 19.12C180.923 19.104 180.651 19.096 180.347 19.096C179.963 19.096 179.603 19.104 179.267 19.12C178.931 19.136 178.723 19.144 178.643 19.144C178.003 19.144 177.683 19.04 177.683 18.832C177.683 18.608 177.803 18.456 178.043 18.376C178.059 18.376 178.091 18.368 178.139 18.352C178.507 18.224 178.731 18.064 178.811 17.872C178.955 17.552 179.027 16.28 179.027 14.056V11.944C179.027 11.48 178.971 11.112 178.859 10.84C178.747 10.568 178.643 10.4 178.547 10.336C178.451 10.272 178.283 10.224 178.043 10.192C177.819 10.144 177.683 10.112 177.635 10.096C177.475 10.032 177.395 9.952 177.395 9.856ZM178.763 4.84C178.763 4.648 178.899 4.384 179.171 4.048C179.459 3.696 179.723 3.52 179.963 3.52C180.219 3.52 180.467 3.688 180.707 4.024C180.947 4.344 181.067 4.632 181.067 4.888C181.067 5.144 180.915 5.432 180.611 5.752C180.307 6.056 180.083 6.208 179.939 6.208C179.619 6.208 179.339 6.04 179.099 5.704C178.875 5.368 178.763 5.08 178.763 4.84ZM184.17 14.128C184.17 12.656 184.666 11.376 185.658 10.288C186.666 9.2 188.058 8.656 189.834 8.656C191.338 8.656 192.642 9.128 193.746 10.072C194.866 11.016 195.426 12.32 195.426 13.984C195.426 15.68 194.85 17.016 193.698 17.992C192.562 18.952 191.218 19.432 189.666 19.432C187.938 19.432 186.586 18.912 185.61 17.872C184.65 16.816 184.17 15.568 184.17 14.128ZM186.066 13.312C186.066 14.96 186.506 16.272 187.386 17.248C188.266 18.224 189.266 18.712 190.386 18.712C191.298 18.712 192.066 18.368 192.69 17.68C193.314 16.976 193.626 15.984 193.626 14.704C193.626 13.296 193.242 12.048 192.474 10.96C191.706 9.856 190.634 9.304 189.258 9.304C188.426 9.304 187.682 9.632 187.026 10.288C186.386 10.944 186.066 11.952 186.066 13.312ZM197.103 9.64C197.103 9.544 197.151 9.472 197.247 9.424C197.359 9.376 197.535 9.336 197.775 9.304C198.015 9.272 198.183 9.24 198.279 9.208C198.583 9.128 198.895 9.024 199.215 8.896C199.551 8.752 199.815 8.632 200.007 8.536C200.215 8.44 200.351 8.392 200.415 8.392H200.463C200.607 8.392 200.679 8.488 200.679 8.68C200.679 8.712 200.671 8.856 200.655 9.112C200.639 9.368 200.631 9.568 200.631 9.712C200.631 10.128 200.671 10.336 200.751 10.336C200.799 10.336 200.855 10.296 200.919 10.216C200.983 10.12 201.095 9.992 201.255 9.832C201.431 9.656 201.639 9.496 201.879 9.352C202.599 8.904 203.295 8.68 203.967 8.68C204.607 8.68 205.183 8.784 205.695 8.992C206.207 9.184 206.607 9.432 206.895 9.736C207.183 10.024 207.423 10.36 207.615 10.744C207.807 11.128 207.935 11.48 207.999 11.8C208.063 12.12 208.095 12.424 208.095 12.712C208.095 12.776 208.095 12.856 208.095 12.952C208.095 13.032 208.095 13.144 208.095 13.288C208.111 13.416 208.119 13.728 208.119 14.224C208.119 14.72 208.119 15.36 208.119 16.144V16.672C208.119 17.28 208.199 17.704 208.359 17.944C208.535 18.168 208.943 18.328 209.583 18.424C209.903 18.472 210.063 18.592 210.063 18.784C210.063 18.944 209.903 19.024 209.583 19.024C209.215 19.024 208.831 19.008 208.431 18.976C208.031 18.928 207.759 18.904 207.615 18.904C207.391 18.904 207.039 18.92 206.559 18.952C206.095 18.984 205.831 19 205.767 19C205.447 19 205.287 18.896 205.287 18.688C205.287 18.608 205.311 18.544 205.359 18.496C205.423 18.448 205.487 18.416 205.551 18.4C205.631 18.384 205.703 18.368 205.767 18.352L205.887 18.328C206.239 18.216 206.415 17.68 206.415 16.72V13.48C206.415 12.248 206.111 11.32 205.503 10.696C204.895 10.056 204.167 9.736 203.319 9.736C202.631 9.736 202.031 9.92 201.519 10.288C201.007 10.656 200.711 10.96 200.631 11.2C200.487 11.6 200.415 12.864 200.415 14.992V15.904C200.415 16.704 200.495 17.296 200.655 17.68C200.831 18.064 201.207 18.28 201.783 18.328C201.943 18.328 202.143 18.36 202.383 18.424C202.639 18.472 202.767 18.56 202.767 18.688C202.767 18.896 202.615 19 202.311 19C202.039 19 201.775 18.984 201.519 18.952C201.263 18.92 200.943 18.904 200.559 18.904C200.143 18.904 199.591 18.92 198.903 18.952L197.871 19C197.631 19 197.511 18.92 197.511 18.76C197.511 18.632 197.551 18.552 197.631 18.52C197.711 18.488 197.807 18.464 197.919 18.448C198.047 18.432 198.167 18.384 198.279 18.304C198.407 18.224 198.519 18.032 198.615 17.728C198.711 17.408 198.767 16.984 198.783 16.456C198.815 15.56 198.831 14.96 198.831 14.656V11.2C198.831 10.688 198.735 10.344 198.543 10.168C198.367 9.992 198.119 9.904 197.799 9.904H197.559C197.255 9.904 197.103 9.816 197.103 9.64ZM211.859 17.968V15.88C211.859 15.704 211.891 15.56 211.955 15.448C212.035 15.32 212.123 15.256 212.219 15.256C212.379 15.256 212.483 15.296 212.531 15.376C212.595 15.44 212.651 15.584 212.699 15.808C212.747 16.032 212.795 16.192 212.843 16.288C213.435 17.76 214.267 18.496 215.339 18.496C215.835 18.496 216.307 18.368 216.755 18.112C217.203 17.84 217.427 17.4 217.427 16.792C217.427 16.264 217.243 15.824 216.875 15.472C216.507 15.12 216.059 14.848 215.531 14.656C215.003 14.448 214.475 14.24 213.947 14.032C213.419 13.808 212.971 13.488 212.603 13.072C212.235 12.64 212.051 12.104 212.051 11.464C212.051 10.568 212.411 9.848 213.131 9.304C213.851 8.76 214.699 8.488 215.675 8.488C216.427 8.488 217.027 8.56 217.475 8.704C217.923 8.832 218.187 8.952 218.267 9.064C218.363 9.176 218.411 9.28 218.411 9.376C218.411 9.392 218.427 9.608 218.459 10.024C218.491 10.44 218.507 10.704 218.507 10.816C218.507 11.088 218.475 11.272 218.411 11.368C218.347 11.464 218.235 11.512 218.075 11.512C217.995 11.512 217.883 11.4 217.739 11.176C217.611 10.936 217.459 10.68 217.283 10.408C217.123 10.136 216.851 9.888 216.467 9.664C216.099 9.424 215.667 9.304 215.171 9.304C214.707 9.304 214.323 9.424 214.019 9.664C213.715 9.888 213.563 10.176 213.563 10.528C213.563 10.72 213.587 10.904 213.635 11.08C213.683 11.24 213.763 11.384 213.875 11.512C214.003 11.64 214.107 11.752 214.187 11.848C214.283 11.928 214.435 12.016 214.643 12.112C214.851 12.208 215.003 12.28 215.099 12.328C215.211 12.36 215.387 12.424 215.627 12.52C215.883 12.6 216.051 12.656 216.131 12.688C217.283 13.12 218.059 13.576 218.459 14.056C218.859 14.52 219.059 15.216 219.059 16.144C219.059 17.04 218.635 17.872 217.787 18.64C217.211 19.136 216.419 19.384 215.411 19.384C215.123 19.384 214.819 19.352 214.499 19.288C214.179 19.224 213.923 19.16 213.731 19.096C213.555 19.048 213.347 18.976 213.107 18.88C212.867 18.784 212.739 18.736 212.723 18.736C212.659 18.72 212.579 18.696 212.483 18.664C212.403 18.632 212.339 18.616 212.291 18.616C212.259 18.6 212.211 18.576 212.147 18.544C212.083 18.512 212.035 18.488 212.003 18.472C211.987 18.44 211.963 18.4 211.931 18.352C211.899 18.304 211.875 18.248 211.859 18.184C211.859 18.12 211.859 18.048 211.859 17.968Z" fill="black"/>
</svg>
