<svg width="32" height="32" viewBox="0 0 32 32" fill="none" xmlns="http://www.w3.org/2000/svg">
<path d="M20.6668 6.33333H11.3335V3H20.6668V6.33333Z" fill="#FA8C16"/>
<path d="M5.33333 4.66406H9.33333V7.33073C9.33333 7.50754 9.40357 7.67711 9.5286 7.80213C9.65362 7.92716 9.82319 7.9974 10 7.9974H22C22.1768 7.9974 22.3464 7.92716 22.4714 7.80213C22.5964 7.67711 22.6667 7.50754 22.6667 7.33073V4.66406H26.6667C27.0203 4.66406 27.3594 4.80454 27.6095 5.05459C27.8595 5.30464 28 5.64377 28 5.9974V27.9974C28 28.351 27.8595 28.6902 27.6095 28.9402C27.3594 29.1903 27.0203 29.3307 26.6667 29.3307H5.33333C4.97971 29.3307 4.64057 29.1903 4.39052 28.9402C4.14048 28.6902 4 28.351 4 27.9974V5.9974C4 5.64377 4.14048 5.30464 4.39052 5.05459C4.64057 4.80454 4.97971 4.66406 5.33333 4.66406ZM14.9427 22.9401L23.2187 14.6641L21.3333 12.7787L14 20.1121L10.6667 16.7787L8.78133 18.6641L13.0573 22.9401C13.3074 23.19 13.6464 23.3304 14 23.3304C14.3536 23.3304 14.6926 23.19 14.9427 22.9401Z" fill="#FA8C16"/>
</svg>
