<svg width="158" height="24" viewBox="0 0 158 24" fill="none" xmlns="http://www.w3.org/2000/svg">
<path d="M0.48 2.296C0.48 2.04 0.712 1.912 1.176 1.912H5.16C5.528 1.912 5.952 1.904 6.432 1.888C6.912 1.856 7.288 1.84 7.56 1.84C9 1.84 10.232 2.208 11.256 2.944C12.28 3.664 12.792 4.64 12.792 5.872C12.792 6.688 12.632 7.408 12.312 8.032C12.008 8.64 11.664 9.08 11.28 9.352C10.912 9.624 10.568 9.864 10.248 10.072C9.944 10.264 9.792 10.392 9.792 10.456C9.792 10.648 10.464 11.688 11.808 13.576C13.152 15.448 14.072 16.648 14.568 17.176C15.176 17.928 15.912 18.304 16.776 18.304C17 18.304 17.112 18.4 17.112 18.592C17.112 18.832 17.016 18.992 16.824 19.072C16.632 19.152 16.136 19.192 15.336 19.192C14.584 19.192 13.896 19.008 13.272 18.64C12.472 18.176 11.12 16.384 9.216 13.264C9.104 13.088 9.024 12.96 8.976 12.88C8.208 11.632 7.616 11.008 7.2 11.008H6.696H5.232C5.04 11.008 4.92 11.088 4.872 11.248C4.84 11.408 4.824 11.896 4.824 12.712C4.824 13.48 4.824 14.112 4.824 14.608C4.824 15.104 4.824 15.424 4.824 15.568C4.84 15.696 4.848 15.808 4.848 15.904C4.848 15.984 4.848 16.048 4.848 16.096C4.848 16.752 5 17.264 5.304 17.632C5.608 17.984 5.944 18.192 6.312 18.256C6.696 18.304 7.04 18.368 7.344 18.448C7.648 18.512 7.8 18.624 7.8 18.784C7.8 19.04 7.656 19.168 7.368 19.168C7.352 19.168 6.8 19.136 5.712 19.072C4.624 19.024 4.032 19 3.936 19C3.472 19 2.92 19.016 2.28 19.048C1.64 19.08 1.312 19.096 1.296 19.096C0.96 19.096 0.792 18.968 0.792 18.712C0.792 18.536 0.896 18.416 1.104 18.352C1.312 18.272 1.544 18.216 1.8 18.184C2.056 18.152 2.288 17.976 2.496 17.656C2.704 17.336 2.808 16.88 2.808 16.288C2.808 15.872 2.808 14.752 2.808 12.928C2.824 11.104 2.832 9.704 2.832 8.728C2.832 7.736 2.824 6.832 2.808 6.016C2.808 5.184 2.808 4.736 2.808 4.672C2.808 4.08 2.688 3.632 2.448 3.328C2.208 3.008 1.936 2.832 1.632 2.8C1.344 2.752 1.08 2.696 0.84 2.632C0.6 2.568 0.48 2.456 0.48 2.296ZM4.824 6.136C4.824 7.784 4.832 8.808 4.848 9.208C4.864 9.592 4.92 9.816 5.016 9.88C5.256 10.024 5.6 10.096 6.048 10.096H6.288H6.984C8.344 10.096 9.312 9.784 9.888 9.16C10.48 8.536 10.776 7.736 10.776 6.76C10.776 5.768 10.384 4.864 9.6 4.048C8.832 3.232 7.664 2.824 6.096 2.824C5.504 2.824 5.144 2.984 5.016 3.304C4.888 3.608 4.824 4.328 4.824 5.464V6.136ZM17.4594 14.344C17.4594 12.744 17.9074 11.392 18.8034 10.288C19.7154 9.184 20.8914 8.632 22.3314 8.632C23.0034 8.632 23.6114 8.752 24.1554 8.992C24.7154 9.232 25.1474 9.528 25.4514 9.88C25.7554 10.216 26.0114 10.576 26.2194 10.96C26.4274 11.344 26.5634 11.664 26.6274 11.92C26.7074 12.16 26.7474 12.336 26.7474 12.448C26.7474 12.736 26.4194 12.88 25.7634 12.88H20.3154H19.5954C19.4674 12.88 19.3874 12.896 19.3554 12.928C19.3394 12.944 19.3314 13.016 19.3314 13.144C19.3314 14.648 19.7314 15.832 20.5314 16.696C21.3474 17.56 22.2994 17.992 23.3874 17.992C24.0594 17.992 24.7394 17.816 25.4274 17.464C26.1314 17.096 26.4994 16.912 26.5314 16.912C26.6914 16.912 26.7714 16.984 26.7714 17.128C26.7714 17.192 26.7154 17.312 26.6034 17.488C26.4914 17.648 26.3154 17.84 26.0754 18.064C25.8354 18.288 25.5554 18.504 25.2354 18.712C24.9154 18.92 24.5154 19.096 24.0354 19.24C23.5554 19.384 23.0514 19.456 22.5234 19.456C21.1154 19.456 19.9154 19.024 18.9234 18.16C17.9474 17.296 17.4594 16.024 17.4594 14.344ZM19.4754 11.968C19.4754 12.192 19.5794 12.304 19.7874 12.304C20.2194 12.304 21.0114 12.28 22.1634 12.232C23.3154 12.184 23.9314 12.16 24.0114 12.16C24.2354 12.16 24.3714 12.144 24.4194 12.112C24.4834 12.064 24.5154 11.984 24.5154 11.872C24.5154 11.392 24.2914 10.832 23.8434 10.192C23.3954 9.552 22.7554 9.232 21.9234 9.232C21.1554 9.232 20.5554 9.552 20.1234 10.192C19.6914 10.816 19.4754 11.408 19.4754 11.968ZM29.0231 17.968V15.88C29.0231 15.704 29.0551 15.56 29.1191 15.448C29.1991 15.32 29.2871 15.256 29.3831 15.256C29.5431 15.256 29.6471 15.296 29.6951 15.376C29.7591 15.44 29.8151 15.584 29.8631 15.808C29.9111 16.032 29.9591 16.192 30.0071 16.288C30.5991 17.76 31.4311 18.496 32.5031 18.496C32.9991 18.496 33.4711 18.368 33.9191 18.112C34.3671 17.84 34.5911 17.4 34.5911 16.792C34.5911 16.264 34.4071 15.824 34.0391 15.472C33.6711 15.12 33.2231 14.848 32.6951 14.656C32.1671 14.448 31.6391 14.24 31.1111 14.032C30.5831 13.808 30.1351 13.488 29.7671 13.072C29.3991 12.64 29.2151 12.104 29.2151 11.464C29.2151 10.568 29.5751 9.848 30.2951 9.304C31.0151 8.76 31.8631 8.488 32.8391 8.488C33.5911 8.488 34.1911 8.56 34.6391 8.704C35.0871 8.832 35.3511 8.952 35.4311 9.064C35.5271 9.176 35.5751 9.28 35.5751 9.376C35.5751 9.392 35.5911 9.608 35.6231 10.024C35.6551 10.44 35.6711 10.704 35.6711 10.816C35.6711 11.088 35.6391 11.272 35.5751 11.368C35.5111 11.464 35.3991 11.512 35.2391 11.512C35.1591 11.512 35.0471 11.4 34.9031 11.176C34.7751 10.936 34.6231 10.68 34.4471 10.408C34.2871 10.136 34.0151 9.888 33.6311 9.664C33.2631 9.424 32.8311 9.304 32.3351 9.304C31.8711 9.304 31.4871 9.424 31.1831 9.664C30.8791 9.888 30.7271 10.176 30.7271 10.528C30.7271 10.72 30.7511 10.904 30.7991 11.08C30.8471 11.24 30.9271 11.384 31.0391 11.512C31.1671 11.64 31.2711 11.752 31.3511 11.848C31.4471 11.928 31.5991 12.016 31.8071 12.112C32.0151 12.208 32.1671 12.28 32.2631 12.328C32.3751 12.36 32.5511 12.424 32.7911 12.52C33.0471 12.6 33.2151 12.656 33.2951 12.688C34.4471 13.12 35.2231 13.576 35.6231 14.056C36.0231 14.52 36.2231 15.216 36.2231 16.144C36.2231 17.04 35.7991 17.872 34.9511 18.64C34.3751 19.136 33.5831 19.384 32.5751 19.384C32.2871 19.384 31.9831 19.352 31.6631 19.288C31.3431 19.224 31.0871 19.16 30.8951 19.096C30.7191 19.048 30.5111 18.976 30.2711 18.88C30.0311 18.784 29.9031 18.736 29.8871 18.736C29.8231 18.72 29.7431 18.696 29.6471 18.664C29.5671 18.632 29.5031 18.616 29.4551 18.616C29.4231 18.6 29.3751 18.576 29.3111 18.544C29.2471 18.512 29.1991 18.488 29.1671 18.472C29.1511 18.44 29.1271 18.4 29.0951 18.352C29.0631 18.304 29.0391 18.248 29.0231 18.184C29.0231 18.12 29.0231 18.048 29.0231 17.968ZM37.821 9.544C37.821 9.432 37.853 9.344 37.917 9.28C37.997 9.2 38.157 9.136 38.397 9.088C38.637 9.04 38.981 9.016 39.429 9.016C39.541 9.016 39.789 9 40.173 8.968C40.557 8.92 40.765 8.896 40.797 8.896C41.069 8.896 41.229 8.952 41.277 9.064C41.325 9.176 41.349 9.52 41.349 10.096C41.349 10.416 41.325 10.968 41.277 11.752C41.245 12.52 41.229 13.376 41.229 14.32C41.229 15.728 41.501 16.728 42.045 17.32C42.589 17.896 43.205 18.184 43.893 18.184C44.917 18.184 45.661 17.968 46.125 17.536C46.589 17.104 46.821 16.344 46.821 15.256L46.773 11.944C46.773 11.144 46.709 10.608 46.581 10.336C46.453 10.048 46.149 9.88 45.669 9.832C45.317 9.8 45.141 9.696 45.141 9.52C45.141 9.152 45.845 8.968 47.253 8.968C47.381 8.968 47.541 8.952 47.733 8.92C47.925 8.872 48.053 8.848 48.117 8.848C48.357 8.848 48.509 8.888 48.573 8.968C48.653 9.048 48.693 9.232 48.693 9.52C48.693 9.536 48.685 9.664 48.669 9.904C48.669 10.128 48.661 10.432 48.645 10.816C48.645 11.2 48.637 11.632 48.621 12.112C48.605 12.592 48.589 13.152 48.573 13.792C48.573 14.416 48.573 15.032 48.573 15.64C48.573 16.616 48.621 17.28 48.717 17.632C48.813 17.984 48.989 18.16 49.245 18.16C49.325 18.16 49.429 18.16 49.557 18.16C49.701 18.144 49.805 18.136 49.869 18.136C50.253 18.136 50.445 18.24 50.445 18.448C50.445 18.624 50.389 18.736 50.277 18.784C50.165 18.832 49.925 18.856 49.557 18.856C49.285 18.856 48.821 18.904 48.165 19C47.525 19.08 47.181 19.12 47.133 19.12C47.021 19.12 46.925 18.92 46.845 18.52C46.781 18.104 46.733 17.896 46.701 17.896C46.685 17.896 46.533 18.024 46.245 18.28C45.957 18.536 45.541 18.792 44.997 19.048C44.469 19.304 43.885 19.432 43.245 19.432C40.669 19.432 39.381 18.04 39.381 15.256C39.381 13.704 39.381 12.608 39.381 11.968C39.397 11.312 39.405 10.968 39.405 10.936C39.405 10.616 39.317 10.36 39.141 10.168C38.981 9.976 38.829 9.88 38.685 9.88H38.253C37.965 9.88 37.821 9.768 37.821 9.544ZM51.4331 2.368C51.4331 2.272 51.4411 2.2 51.4571 2.152C51.4891 2.104 51.5451 2.064 51.6251 2.032C51.7051 1.984 51.7931 1.952 51.8891 1.936C52.0011 1.904 52.1691 1.856 52.3931 1.792C52.6171 1.712 52.8411 1.624 53.0651 1.528C53.1931 1.48 53.3931 1.392 53.6651 1.264C53.9371 1.136 54.1691 1.04 54.3611 0.975999C54.5691 0.895999 54.7451 0.855999 54.8891 0.855999C55.0811 0.855999 55.1771 1.008 55.1771 1.312C55.1771 1.376 55.1611 1.568 55.1291 1.888C55.0971 2.192 55.0651 2.624 55.0331 3.184C55.0011 3.728 54.9851 4.32 54.9851 4.96V6.304C54.9851 7.056 54.9771 7.696 54.9611 8.224C54.9451 8.736 54.9371 9.16 54.9371 9.496V16.648C54.9371 16.984 54.9611 17.264 55.0091 17.488C55.0731 17.696 55.2571 17.904 55.5611 18.112C55.8811 18.304 56.3211 18.4 56.8811 18.4C56.9611 18.4 57.0331 18.44 57.0971 18.52C57.1611 18.6 57.1931 18.68 57.1931 18.76C57.1931 18.984 56.9451 19.096 56.4491 19.096C56.3051 19.096 55.9291 19.064 55.3211 19C54.7291 18.952 54.2971 18.928 54.0251 18.928C53.6091 18.928 53.2091 18.96 52.8251 19.024C52.4571 19.088 52.2091 19.12 52.0811 19.12C51.9691 19.12 51.8731 19.088 51.7931 19.024C51.7291 18.976 51.6971 18.928 51.6971 18.88C51.6971 18.752 51.7291 18.664 51.7931 18.616C51.8731 18.552 51.9931 18.504 52.1531 18.472C52.3291 18.424 52.4491 18.384 52.5131 18.352C52.7851 18.224 52.9611 18.048 53.0411 17.824C53.1211 17.6 53.1611 17.256 53.1611 16.792C53.1611 16.728 53.1531 16.632 53.1371 16.504C53.1371 16.36 53.1371 16.248 53.1371 16.168V14.392C53.1371 13.8 53.1531 12.232 53.1851 9.688C53.2171 7.128 53.2331 5.296 53.2331 4.192C53.2331 3.824 53.1691 3.496 53.0411 3.208C52.9291 2.904 52.8011 2.72 52.6571 2.656C52.5131 2.592 52.1931 2.56 51.6971 2.56C51.5211 2.56 51.4331 2.496 51.4331 2.368ZM58.0699 9.784C58.0699 9.688 58.0939 9.608 58.1419 9.544C58.2059 9.464 58.2859 9.392 58.3819 9.328C58.4779 9.264 58.6139 9.16 58.7899 9.016C58.9819 8.856 59.1659 8.68 59.3419 8.488C59.5819 8.232 59.8299 7.928 60.0859 7.576C60.3579 7.208 60.5659 6.944 60.7099 6.784C60.8699 6.608 61.0219 6.52 61.1659 6.52C61.3419 6.52 61.4299 6.704 61.4299 7.072C61.4299 7.216 61.4139 7.44 61.3819 7.744C61.3499 8.048 61.3339 8.28 61.3339 8.44C61.3339 8.664 61.3739 8.8 61.4539 8.848C61.5499 8.896 61.8379 8.92 62.3179 8.92H63.1579C63.5099 8.92 63.8059 8.904 64.0459 8.872C64.3019 8.84 64.4779 8.8 64.5739 8.752C64.6699 8.704 64.7499 8.664 64.8139 8.632C64.8939 8.6 64.9579 8.584 65.0059 8.584C65.1659 8.584 65.2459 8.672 65.2459 8.848C65.2459 8.976 65.1419 9.232 64.9339 9.616C64.7259 9.984 64.5739 10.168 64.4779 10.168C64.2379 10.168 64.0059 10.168 63.7819 10.168C63.5579 10.152 63.3659 10.144 63.2059 10.144C63.0459 10.128 62.8939 10.112 62.7499 10.096C62.6059 10.08 62.4859 10.072 62.3899 10.072C62.2939 10.056 62.2059 10.048 62.1259 10.048C62.0619 10.032 62.0139 10.024 61.9819 10.024L61.9339 10C61.6299 10 61.4299 10.048 61.3339 10.144C61.2539 10.24 61.2139 10.456 61.2139 10.792C61.2139 10.968 61.1979 11.64 61.1659 12.808C61.1339 13.96 61.1179 14.776 61.1179 15.256C61.1179 16.296 61.2459 17.024 61.5019 17.44C61.7739 17.84 62.3339 18.04 63.1819 18.04C63.5179 18.04 63.8859 17.968 64.2859 17.824C64.7019 17.664 64.9259 17.584 64.9579 17.584C65.1179 17.584 65.1979 17.68 65.1979 17.872C65.1979 18.096 64.9179 18.384 64.3579 18.736C63.8139 19.072 63.2219 19.24 62.5819 19.24C60.4219 19.24 59.3419 18.304 59.3419 16.432V16.072C59.3419 15.448 59.3499 14.688 59.3659 13.792C59.3819 12.896 59.3979 12.128 59.4139 11.488C59.4299 10.832 59.4379 10.496 59.4379 10.48C59.4379 10.32 59.4059 10.216 59.3419 10.168C59.2779 10.12 59.1419 10.096 58.9339 10.096C58.8699 10.096 58.7819 10.104 58.6699 10.12C58.5739 10.12 58.5099 10.12 58.4779 10.12C58.2059 10.12 58.0699 10.008 58.0699 9.784ZM66.945 17.968V15.88C66.945 15.704 66.977 15.56 67.041 15.448C67.121 15.32 67.209 15.256 67.305 15.256C67.465 15.256 67.569 15.296 67.617 15.376C67.681 15.44 67.737 15.584 67.785 15.808C67.833 16.032 67.881 16.192 67.929 16.288C68.521 17.76 69.353 18.496 70.425 18.496C70.921 18.496 71.393 18.368 71.841 18.112C72.289 17.84 72.513 17.4 72.513 16.792C72.513 16.264 72.329 15.824 71.961 15.472C71.593 15.12 71.145 14.848 70.617 14.656C70.089 14.448 69.561 14.24 69.033 14.032C68.505 13.808 68.057 13.488 67.689 13.072C67.321 12.64 67.137 12.104 67.137 11.464C67.137 10.568 67.497 9.848 68.217 9.304C68.937 8.76 69.785 8.488 70.761 8.488C71.513 8.488 72.113 8.56 72.561 8.704C73.009 8.832 73.273 8.952 73.353 9.064C73.449 9.176 73.497 9.28 73.497 9.376C73.497 9.392 73.513 9.608 73.545 10.024C73.577 10.44 73.593 10.704 73.593 10.816C73.593 11.088 73.561 11.272 73.497 11.368C73.433 11.464 73.321 11.512 73.161 11.512C73.081 11.512 72.969 11.4 72.825 11.176C72.697 10.936 72.545 10.68 72.369 10.408C72.209 10.136 71.937 9.888 71.553 9.664C71.185 9.424 70.753 9.304 70.257 9.304C69.793 9.304 69.409 9.424 69.105 9.664C68.801 9.888 68.649 10.176 68.649 10.528C68.649 10.72 68.673 10.904 68.721 11.08C68.769 11.24 68.849 11.384 68.961 11.512C69.089 11.64 69.193 11.752 69.273 11.848C69.369 11.928 69.521 12.016 69.729 12.112C69.937 12.208 70.089 12.28 70.185 12.328C70.297 12.36 70.473 12.424 70.713 12.52C70.969 12.6 71.137 12.656 71.217 12.688C72.369 13.12 73.145 13.576 73.545 14.056C73.945 14.52 74.145 15.216 74.145 16.144C74.145 17.04 73.721 17.872 72.873 18.64C72.297 19.136 71.505 19.384 70.497 19.384C70.209 19.384 69.905 19.352 69.585 19.288C69.265 19.224 69.009 19.16 68.817 19.096C68.641 19.048 68.433 18.976 68.193 18.88C67.953 18.784 67.825 18.736 67.809 18.736C67.745 18.72 67.665 18.696 67.569 18.664C67.489 18.632 67.425 18.616 67.377 18.616C67.345 18.6 67.297 18.576 67.233 18.544C67.169 18.512 67.121 18.488 67.089 18.472C67.073 18.44 67.049 18.4 67.017 18.352C66.985 18.304 66.961 18.248 66.945 18.184C66.945 18.12 66.945 18.048 66.945 17.968ZM80.6363 2.2C80.6363 2.056 80.7003 1.976 80.8283 1.96C80.9723 1.928 81.3163 1.912 81.8603 1.912H83.9483C84.3483 1.912 85.0843 1.896 86.1562 1.864C87.2283 1.832 88.0523 1.816 88.6283 1.816C89.7323 1.816 90.8363 1.984 91.9403 2.32C93.0443 2.656 94.0603 3.144 94.9883 3.784C95.9163 4.408 96.6683 5.232 97.2443 6.256C97.8203 7.264 98.1083 8.392 98.1083 9.64C98.1083 10.76 98.0283 11.736 97.8683 12.568C97.7243 13.384 97.4763 14.096 97.1243 14.704C96.7723 15.296 96.4203 15.784 96.0683 16.168C95.7163 16.536 95.2363 16.976 94.6283 17.488C94.1483 17.872 93.4523 18.232 92.5403 18.568C91.6283 18.904 90.6923 19.072 89.7323 19.072C89.6363 19.072 88.8203 19.048 87.2843 19C85.7483 18.968 84.6443 18.952 83.9723 18.952C83.4123 18.952 82.8923 18.968 82.4123 19C81.9323 19.048 81.6523 19.072 81.5723 19.072C81.1883 19.072 80.9963 18.968 80.9963 18.76C80.9963 18.632 81.0203 18.544 81.0683 18.496C81.1323 18.432 81.2523 18.376 81.4283 18.328C81.6203 18.28 81.7563 18.24 81.8363 18.208C82.0923 18.096 82.3243 17.888 82.5323 17.584C82.7563 17.264 82.8683 16.952 82.8683 16.648C82.8683 15.752 82.8683 14.608 82.8683 13.216C82.8843 11.824 82.8923 10.8 82.8923 10.144C82.8923 9.568 82.8843 8.672 82.8683 7.456C82.8683 6.224 82.8683 5.088 82.8683 4.048C82.8683 3.776 82.7323 3.504 82.4603 3.232C82.2043 2.944 81.9163 2.792 81.5963 2.776C81.3723 2.76 81.2043 2.744 81.0923 2.728C80.9963 2.712 80.8923 2.664 80.7803 2.584C80.6843 2.488 80.6363 2.36 80.6363 2.2ZM84.8843 15.616C84.8843 15.92 84.8843 16.168 84.8843 16.36C84.9003 16.552 84.9323 16.728 84.9803 16.888C85.0443 17.048 85.0923 17.16 85.1243 17.224C85.1563 17.288 85.2523 17.36 85.4123 17.44C85.5723 17.52 85.6923 17.576 85.7723 17.608C85.8683 17.624 86.0603 17.672 86.3483 17.752C86.6363 17.832 86.8763 17.896 87.0683 17.944C87.6283 18.104 88.2123 18.184 88.8203 18.184H89.3003C90.3883 18.184 91.3163 18.032 92.0843 17.728C92.8523 17.408 93.5883 16.912 94.2923 16.24C95.4763 15.104 96.0683 13.264 96.0683 10.72C96.0683 9.44 95.8123 8.28 95.3003 7.24C94.8043 6.2 94.1483 5.376 93.3323 4.768C92.5163 4.144 91.6363 3.672 90.6923 3.352C89.7483 3.016 88.7963 2.848 87.8363 2.848C87.4043 2.848 87.0843 2.848 86.8763 2.848C86.6843 2.848 86.4523 2.872 86.1803 2.92C85.9243 2.952 85.7483 2.984 85.6523 3.016C85.5723 3.032 85.4683 3.112 85.3403 3.256C85.2123 3.384 85.1323 3.496 85.1003 3.592C85.0843 3.688 85.0523 3.88 85.0043 4.168C84.9723 4.44 84.9563 4.68 84.9563 4.888C84.9563 5.096 84.9563 5.432 84.9563 5.896C84.9563 6.248 84.9483 7.08 84.9323 8.392C84.9163 9.688 84.9083 10.392 84.9083 10.504C84.9083 11.464 84.9003 12.504 84.8843 13.624C84.8843 14.744 84.8843 15.408 84.8843 15.616ZM100.028 9.856C100.028 9.776 100.044 9.712 100.076 9.664C100.124 9.616 100.204 9.568 100.316 9.52C100.444 9.456 100.572 9.408 100.7 9.376C100.828 9.328 101.012 9.264 101.252 9.184C101.508 9.088 101.748 8.992 101.972 8.896C102.148 8.816 102.308 8.744 102.452 8.68C102.612 8.616 102.716 8.576 102.764 8.56C102.812 8.528 102.868 8.504 102.932 8.488C102.996 8.472 103.076 8.464 103.172 8.464C103.412 8.464 103.532 8.616 103.532 8.92C103.532 9 103.508 9.176 103.46 9.448C103.412 9.72 103.388 9.928 103.388 10.072V16.648C103.388 17.128 103.46 17.504 103.604 17.776C103.764 18.048 103.924 18.216 104.084 18.28C104.26 18.344 104.476 18.384 104.732 18.4C104.924 18.416 105.052 18.432 105.116 18.448C105.18 18.448 105.252 18.472 105.332 18.52C105.412 18.568 105.452 18.648 105.452 18.76C105.452 19.032 105.316 19.168 105.044 19.168C105.012 19.168 104.956 19.16 104.876 19.144C104.796 19.144 104.732 19.144 104.684 19.144C104.332 19.144 104.036 19.136 103.796 19.12C103.556 19.104 103.284 19.096 102.98 19.096C102.596 19.096 102.236 19.104 101.9 19.12C101.564 19.136 101.356 19.144 101.276 19.144C100.636 19.144 100.316 19.04 100.316 18.832C100.316 18.608 100.436 18.456 100.676 18.376C100.692 18.376 100.724 18.368 100.772 18.352C101.14 18.224 101.364 18.064 101.444 17.872C101.588 17.552 101.66 16.28 101.66 14.056V11.944C101.66 11.48 101.604 11.112 101.492 10.84C101.38 10.568 101.276 10.4 101.18 10.336C101.084 10.272 100.916 10.224 100.676 10.192C100.452 10.144 100.316 10.112 100.268 10.096C100.108 10.032 100.028 9.952 100.028 9.856ZM101.396 4.84C101.396 4.648 101.532 4.384 101.804 4.048C102.092 3.696 102.356 3.52 102.596 3.52C102.852 3.52 103.1 3.688 103.34 4.024C103.58 4.344 103.7 4.632 103.7 4.888C103.7 5.144 103.548 5.432 103.244 5.752C102.94 6.056 102.716 6.208 102.572 6.208C102.252 6.208 101.972 6.04 101.732 5.704C101.508 5.368 101.396 5.08 101.396 4.84ZM107.304 17.968V15.88C107.304 15.704 107.336 15.56 107.4 15.448C107.48 15.32 107.568 15.256 107.664 15.256C107.824 15.256 107.928 15.296 107.976 15.376C108.04 15.44 108.096 15.584 108.144 15.808C108.192 16.032 108.24 16.192 108.288 16.288C108.88 17.76 109.712 18.496 110.784 18.496C111.28 18.496 111.752 18.368 112.2 18.112C112.648 17.84 112.872 17.4 112.872 16.792C112.872 16.264 112.688 15.824 112.32 15.472C111.952 15.12 111.504 14.848 110.976 14.656C110.448 14.448 109.92 14.24 109.392 14.032C108.864 13.808 108.416 13.488 108.048 13.072C107.68 12.64 107.496 12.104 107.496 11.464C107.496 10.568 107.856 9.848 108.576 9.304C109.296 8.76 110.144 8.488 111.12 8.488C111.872 8.488 112.472 8.56 112.92 8.704C113.368 8.832 113.632 8.952 113.712 9.064C113.808 9.176 113.856 9.28 113.856 9.376C113.856 9.392 113.872 9.608 113.904 10.024C113.936 10.44 113.952 10.704 113.952 10.816C113.952 11.088 113.92 11.272 113.856 11.368C113.792 11.464 113.68 11.512 113.52 11.512C113.44 11.512 113.328 11.4 113.184 11.176C113.056 10.936 112.904 10.68 112.728 10.408C112.568 10.136 112.296 9.888 111.912 9.664C111.544 9.424 111.112 9.304 110.616 9.304C110.152 9.304 109.768 9.424 109.464 9.664C109.16 9.888 109.008 10.176 109.008 10.528C109.008 10.72 109.032 10.904 109.08 11.08C109.128 11.24 109.208 11.384 109.32 11.512C109.448 11.64 109.552 11.752 109.632 11.848C109.728 11.928 109.88 12.016 110.088 12.112C110.296 12.208 110.448 12.28 110.544 12.328C110.656 12.36 110.832 12.424 111.072 12.52C111.328 12.6 111.496 12.656 111.576 12.688C112.728 13.12 113.504 13.576 113.904 14.056C114.304 14.52 114.504 15.216 114.504 16.144C114.504 17.04 114.08 17.872 113.232 18.64C112.656 19.136 111.864 19.384 110.856 19.384C110.568 19.384 110.264 19.352 109.944 19.288C109.624 19.224 109.368 19.16 109.176 19.096C109 19.048 108.792 18.976 108.552 18.88C108.312 18.784 108.184 18.736 108.168 18.736C108.104 18.72 108.024 18.696 107.928 18.664C107.848 18.632 107.784 18.616 107.736 18.616C107.704 18.6 107.656 18.576 107.592 18.544C107.528 18.512 107.48 18.488 107.448 18.472C107.432 18.44 107.408 18.4 107.376 18.352C107.344 18.304 107.32 18.248 107.304 18.184C107.304 18.12 107.304 18.048 107.304 17.968ZM116.15 9.76C116.15 9.68 116.214 9.616 116.342 9.568C116.486 9.52 116.766 9.432 117.182 9.304C117.598 9.176 118.038 9 118.502 8.776C119.126 8.472 119.462 8.32 119.51 8.32C119.718 8.32 119.822 8.424 119.822 8.632C119.822 8.968 119.806 9.28 119.774 9.568C119.742 9.84 119.726 10 119.726 10.048C119.726 10.176 119.75 10.24 119.798 10.24C119.814 10.24 119.878 10.184 119.99 10.072C120.118 9.96 120.278 9.824 120.47 9.664C120.662 9.488 120.886 9.32 121.142 9.16C121.414 9 121.75 8.864 122.15 8.752C122.55 8.64 122.966 8.584 123.398 8.584C124.822 8.584 125.91 9.056 126.662 10C127.414 10.928 127.79 12.064 127.79 13.408C127.79 14.896 127.318 16.24 126.374 17.44C125.446 18.624 124.198 19.216 122.63 19.216C121.894 19.216 121.294 19.144 120.83 19C120.382 18.84 120.07 18.688 119.894 18.544C119.718 18.384 119.598 18.304 119.534 18.304C119.486 18.304 119.462 18.368 119.462 18.496V21.136V21.448C119.462 21.752 119.598 22.128 119.87 22.576C120.046 22.864 120.31 23.032 120.662 23.08C121.03 23.128 121.334 23.16 121.574 23.176C121.83 23.192 121.958 23.304 121.958 23.512C121.958 23.704 121.686 23.8 121.142 23.8C121.046 23.8 120.79 23.784 120.374 23.752C119.958 23.72 119.382 23.704 118.646 23.704C118.358 23.704 118.046 23.712 117.71 23.728C117.39 23.76 117.198 23.776 117.134 23.776C116.782 23.776 116.558 23.76 116.462 23.728C116.366 23.696 116.318 23.632 116.318 23.536C116.318 23.392 116.39 23.288 116.534 23.224C116.694 23.16 116.87 23.104 117.062 23.056C117.254 23.008 117.422 22.808 117.566 22.456C117.726 22.12 117.806 21.624 117.806 20.968V20.488C117.806 18.6 117.814 17.032 117.83 15.784C117.862 14.536 117.878 13.896 117.878 13.864V13.336C117.878 12.008 117.814 11.128 117.686 10.696C117.574 10.248 117.262 10.024 116.75 10.024C116.478 10.024 116.31 10.008 116.246 9.976C116.182 9.928 116.15 9.856 116.15 9.76ZM119.462 14.392C119.462 14.552 119.462 14.752 119.462 14.992C119.478 15.232 119.486 15.432 119.486 15.592C119.486 16.152 119.606 16.632 119.846 17.032C120.086 17.432 120.39 17.736 120.758 17.944C121.142 18.136 121.518 18.28 121.886 18.376C122.27 18.456 122.646 18.496 123.014 18.496C124.054 18.496 124.846 18.12 125.39 17.368C125.95 16.6 126.23 15.664 126.23 14.56C126.23 13.296 125.886 12.184 125.198 11.224C124.526 10.264 123.614 9.784 122.462 9.784C121.646 9.784 120.918 10.04 120.278 10.552C119.942 10.808 119.718 11.16 119.606 11.608C119.51 12.04 119.462 12.968 119.462 14.392ZM129.082 2.368C129.082 2.272 129.09 2.2 129.106 2.152C129.138 2.104 129.194 2.064 129.274 2.032C129.354 1.984 129.442 1.952 129.538 1.936C129.65 1.904 129.818 1.856 130.042 1.792C130.266 1.712 130.49 1.624 130.714 1.528C130.842 1.48 131.042 1.392 131.314 1.264C131.586 1.136 131.818 1.04 132.01 0.975999C132.218 0.895999 132.394 0.855999 132.538 0.855999C132.73 0.855999 132.826 1.008 132.826 1.312C132.826 1.376 132.81 1.568 132.778 1.888C132.746 2.192 132.714 2.624 132.682 3.184C132.65 3.728 132.634 4.32 132.634 4.96V6.304C132.634 7.056 132.626 7.696 132.61 8.224C132.594 8.736 132.586 9.16 132.586 9.496V16.648C132.586 16.984 132.61 17.264 132.658 17.488C132.722 17.696 132.906 17.904 133.21 18.112C133.53 18.304 133.97 18.4 134.53 18.4C134.61 18.4 134.682 18.44 134.746 18.52C134.81 18.6 134.842 18.68 134.842 18.76C134.842 18.984 134.594 19.096 134.098 19.096C133.954 19.096 133.578 19.064 132.97 19C132.378 18.952 131.946 18.928 131.674 18.928C131.258 18.928 130.858 18.96 130.474 19.024C130.106 19.088 129.858 19.12 129.73 19.12C129.618 19.12 129.522 19.088 129.442 19.024C129.378 18.976 129.346 18.928 129.346 18.88C129.346 18.752 129.378 18.664 129.442 18.616C129.522 18.552 129.642 18.504 129.802 18.472C129.978 18.424 130.098 18.384 130.162 18.352C130.434 18.224 130.61 18.048 130.69 17.824C130.77 17.6 130.81 17.256 130.81 16.792C130.81 16.728 130.802 16.632 130.786 16.504C130.786 16.36 130.786 16.248 130.786 16.168V14.392C130.786 13.8 130.802 12.232 130.834 9.688C130.866 7.128 130.882 5.296 130.882 4.192C130.882 3.824 130.818 3.496 130.69 3.208C130.578 2.904 130.45 2.72 130.306 2.656C130.162 2.592 129.842 2.56 129.346 2.56C129.17 2.56 129.082 2.496 129.082 2.368ZM136.457 16.96C136.457 16.384 136.577 15.904 136.817 15.52C137.057 15.12 137.417 14.816 137.897 14.608C138.393 14.384 138.905 14.208 139.433 14.08C139.961 13.952 140.601 13.824 141.353 13.696C141.449 13.68 141.521 13.672 141.569 13.672C141.617 13.656 141.681 13.648 141.761 13.648C141.841 13.632 141.913 13.616 141.977 13.6C142.089 13.584 142.161 13.568 142.193 13.552C142.241 13.536 142.281 13.504 142.313 13.456C142.361 13.392 142.385 13.312 142.385 13.216C142.385 13.056 142.393 12.84 142.409 12.568C142.425 12.28 142.433 12.08 142.433 11.968C142.433 11.056 142.169 10.4 141.641 10C141.113 9.584 140.601 9.376 140.105 9.376C138.953 9.376 138.377 9.856 138.377 10.816C138.377 10.944 138.393 11.104 138.425 11.296C138.457 11.488 138.473 11.616 138.473 11.68C138.473 12 138.329 12.16 138.041 12.16C137.945 12.16 137.825 12.152 137.681 12.136C137.537 12.104 137.369 12.064 137.177 12.016C137.001 11.952 136.849 11.856 136.721 11.728C136.609 11.584 136.553 11.416 136.553 11.224C136.553 10.6 136.969 10.008 137.801 9.448C138.649 8.872 139.577 8.584 140.585 8.584C141.273 8.584 141.857 8.664 142.337 8.824C142.817 8.984 143.169 9.168 143.393 9.376C143.633 9.568 143.817 9.832 143.945 10.168C144.073 10.488 144.145 10.744 144.161 10.936C144.177 11.112 144.185 11.336 144.185 11.608C144.185 12.76 144.161 13.672 144.113 14.344C144.081 15 144.065 15.576 144.065 16.072C144.065 16.664 144.129 17.136 144.257 17.488C144.385 17.824 144.537 18.04 144.713 18.136C144.889 18.232 145.065 18.288 145.241 18.304C145.417 18.32 145.569 18.352 145.697 18.4C145.825 18.448 145.889 18.544 145.889 18.688C145.889 19.024 145.385 19.192 144.377 19.192C143.961 19.192 143.601 19.08 143.297 18.856C143.009 18.632 142.801 18.416 142.673 18.208C142.545 17.984 142.473 17.872 142.457 17.872C142.441 17.872 142.377 17.928 142.265 18.04C142.153 18.136 141.993 18.256 141.785 18.4C141.593 18.544 141.369 18.688 141.113 18.832C140.873 18.976 140.585 19.096 140.249 19.192C139.929 19.304 139.609 19.36 139.289 19.36C138.265 19.36 137.521 19.12 137.057 18.64C136.657 18.24 136.457 17.68 136.457 16.96ZM138.329 16.6C138.329 17.144 138.489 17.584 138.809 17.92C139.129 18.24 139.585 18.4 140.177 18.4C140.593 18.4 140.945 18.336 141.233 18.208C141.537 18.08 141.761 17.936 141.905 17.776C142.049 17.616 142.161 17.408 142.241 17.152C142.321 16.88 142.361 16.672 142.361 16.528C142.377 16.384 142.385 16.192 142.385 15.952V14.224C142.385 14.08 142.329 14.008 142.217 14.008C142.185 14.008 142.145 14.016 142.097 14.032C142.049 14.048 142.009 14.056 141.977 14.056C141.609 14.12 141.377 14.16 141.281 14.176C141.185 14.192 140.961 14.24 140.609 14.32C140.257 14.4 140.009 14.472 139.865 14.536C139.737 14.6 139.545 14.704 139.289 14.848C139.049 14.976 138.873 15.12 138.761 15.28C138.665 15.424 138.569 15.616 138.473 15.856C138.377 16.08 138.329 16.328 138.329 16.6ZM146.519 9.112C146.519 8.92 146.679 8.824 146.999 8.824C147.447 8.824 147.903 8.832 148.367 8.848C148.847 8.864 149.247 8.872 149.567 8.872C149.839 8.872 150.079 8.864 150.287 8.848C150.511 8.832 150.727 8.824 150.935 8.824C151.047 8.824 151.143 8.856 151.223 8.92C151.319 8.968 151.367 9.024 151.367 9.088C151.367 9.376 151.175 9.52 150.791 9.52H150.431C150.175 9.52 150.047 9.744 150.047 10.192C150.047 10.544 150.391 11.48 151.079 13C151.127 13.128 151.167 13.232 151.199 13.312C151.231 13.376 151.271 13.472 151.319 13.6C151.383 13.712 151.439 13.824 151.487 13.936C151.583 14.144 151.743 14.504 151.967 15.016C152.191 15.528 152.359 15.904 152.471 16.144C152.599 16.384 152.695 16.504 152.759 16.504C152.855 16.504 153.223 15.584 153.863 13.744C154.519 11.904 154.847 10.792 154.847 10.408C154.847 10.088 154.767 9.856 154.607 9.712C154.463 9.568 154.295 9.504 154.103 9.52C153.911 9.52 153.735 9.496 153.575 9.448C153.431 9.384 153.359 9.264 153.359 9.088C153.359 8.896 153.511 8.8 153.815 8.8C154.055 8.8 154.367 8.808 154.751 8.824C155.151 8.824 155.415 8.824 155.543 8.824C155.703 8.824 155.975 8.824 156.359 8.824C156.759 8.808 156.983 8.8 157.031 8.8C157.367 8.8 157.535 8.904 157.535 9.112C157.535 9.272 157.391 9.392 157.103 9.472C156.831 9.536 156.647 9.632 156.551 9.76C156.295 10.128 155.863 11.136 155.255 12.784L153.119 18.472C152.943 18.936 152.767 19.408 152.591 19.888C152.415 20.384 152.271 20.784 152.159 21.088C152.047 21.392 151.935 21.696 151.823 22C151.711 22.304 151.623 22.536 151.559 22.696C151.495 22.872 151.423 23.032 151.343 23.176C151.279 23.32 151.215 23.416 151.151 23.464C151.103 23.528 151.055 23.56 151.007 23.56C150.991 23.56 150.959 23.56 150.911 23.56C150.879 23.56 150.783 23.56 150.623 23.56C150.463 23.576 150.223 23.584 149.903 23.584C149.599 23.584 149.447 23.48 149.447 23.272C149.447 23.224 149.623 22.976 149.975 22.528C150.343 22.08 150.711 21.528 151.079 20.872C151.447 20.216 151.631 19.616 151.631 19.072C151.631 18.608 151.175 17.384 150.263 15.4C149.351 13.416 148.559 11.792 147.887 10.528C147.711 10.208 147.527 9.96 147.335 9.784C147.159 9.608 147.015 9.512 146.903 9.496C146.791 9.48 146.695 9.448 146.615 9.4C146.551 9.352 146.519 9.256 146.519 9.112Z" fill="black"/>
</svg>
