<svg width="115" height="20" viewBox="0 0 115 20" fill="none" xmlns="http://www.w3.org/2000/svg">
<path d="M0.48 2.296C0.48 2.04 0.712 1.912 1.176 1.912H5.16C5.528 1.912 5.952 1.904 6.432 1.888C6.912 1.856 7.288 1.84 7.56 1.84C9 1.84 10.232 2.208 11.256 2.944C12.28 3.664 12.792 4.64 12.792 5.872C12.792 6.688 12.632 7.408 12.312 8.032C12.008 8.64 11.664 9.08 11.28 9.352C10.912 9.624 10.568 9.864 10.248 10.072C9.944 10.264 9.792 10.392 9.792 10.456C9.792 10.648 10.464 11.688 11.808 13.576C13.152 15.448 14.072 16.648 14.568 17.176C15.176 17.928 15.912 18.304 16.776 18.304C17 18.304 17.112 18.4 17.112 18.592C17.112 18.832 17.016 18.992 16.824 19.072C16.632 19.152 16.136 19.192 15.336 19.192C14.584 19.192 13.896 19.008 13.272 18.64C12.472 18.176 11.12 16.384 9.216 13.264C9.104 13.088 9.024 12.96 8.976 12.88C8.208 11.632 7.616 11.008 7.2 11.008H6.696H5.232C5.04 11.008 4.92 11.088 4.872 11.248C4.84 11.408 4.824 11.896 4.824 12.712C4.824 13.48 4.824 14.112 4.824 14.608C4.824 15.104 4.824 15.424 4.824 15.568C4.84 15.696 4.848 15.808 4.848 15.904C4.848 15.984 4.848 16.048 4.848 16.096C4.848 16.752 5 17.264 5.304 17.632C5.608 17.984 5.944 18.192 6.312 18.256C6.696 18.304 7.04 18.368 7.344 18.448C7.648 18.512 7.8 18.624 7.8 18.784C7.8 19.04 7.656 19.168 7.368 19.168C7.352 19.168 6.8 19.136 5.712 19.072C4.624 19.024 4.032 19 3.936 19C3.472 19 2.92 19.016 2.28 19.048C1.64 19.08 1.312 19.096 1.296 19.096C0.96 19.096 0.792 18.968 0.792 18.712C0.792 18.536 0.896 18.416 1.104 18.352C1.312 18.272 1.544 18.216 1.8 18.184C2.056 18.152 2.288 17.976 2.496 17.656C2.704 17.336 2.808 16.88 2.808 16.288C2.808 15.872 2.808 14.752 2.808 12.928C2.824 11.104 2.832 9.704 2.832 8.728C2.832 7.736 2.824 6.832 2.808 6.016C2.808 5.184 2.808 4.736 2.808 4.672C2.808 4.08 2.688 3.632 2.448 3.328C2.208 3.008 1.936 2.832 1.632 2.8C1.344 2.752 1.08 2.696 0.84 2.632C0.6 2.568 0.48 2.456 0.48 2.296ZM4.824 6.136C4.824 7.784 4.832 8.808 4.848 9.208C4.864 9.592 4.92 9.816 5.016 9.88C5.256 10.024 5.6 10.096 6.048 10.096H6.288H6.984C8.344 10.096 9.312 9.784 9.888 9.16C10.48 8.536 10.776 7.736 10.776 6.76C10.776 5.768 10.384 4.864 9.6 4.048C8.832 3.232 7.664 2.824 6.096 2.824C5.504 2.824 5.144 2.984 5.016 3.304C4.888 3.608 4.824 4.328 4.824 5.464V6.136ZM18.0906 9.856C18.0906 9.776 18.1066 9.712 18.1386 9.664C18.1866 9.616 18.2666 9.568 18.3786 9.52C18.5066 9.456 18.6346 9.408 18.7626 9.376C18.8906 9.328 19.0746 9.264 19.3146 9.184C19.5706 9.088 19.8106 8.992 20.0346 8.896C20.2106 8.816 20.3706 8.744 20.5146 8.68C20.6746 8.616 20.7786 8.576 20.8266 8.56C20.8746 8.528 20.9306 8.504 20.9946 8.488C21.0586 8.472 21.1386 8.464 21.2346 8.464C21.4746 8.464 21.5946 8.616 21.5946 8.92C21.5946 9 21.5706 9.176 21.5226 9.448C21.4746 9.72 21.4506 9.928 21.4506 10.072V16.648C21.4506 17.128 21.5226 17.504 21.6666 17.776C21.8266 18.048 21.9866 18.216 22.1466 18.28C22.3226 18.344 22.5386 18.384 22.7946 18.4C22.9866 18.416 23.1146 18.432 23.1786 18.448C23.2426 18.448 23.3146 18.472 23.3946 18.52C23.4746 18.568 23.5146 18.648 23.5146 18.76C23.5146 19.032 23.3786 19.168 23.1066 19.168C23.0746 19.168 23.0186 19.16 22.9386 19.144C22.8586 19.144 22.7946 19.144 22.7466 19.144C22.3946 19.144 22.0986 19.136 21.8586 19.12C21.6186 19.104 21.3466 19.096 21.0426 19.096C20.6586 19.096 20.2986 19.104 19.9626 19.12C19.6266 19.136 19.4186 19.144 19.3386 19.144C18.6986 19.144 18.3786 19.04 18.3786 18.832C18.3786 18.608 18.4986 18.456 18.7386 18.376C18.7546 18.376 18.7866 18.368 18.8346 18.352C19.2026 18.224 19.4266 18.064 19.5066 17.872C19.6506 17.552 19.7226 16.28 19.7226 14.056V11.944C19.7226 11.48 19.6666 11.112 19.5546 10.84C19.4426 10.568 19.3386 10.4 19.2426 10.336C19.1466 10.272 18.9786 10.224 18.7386 10.192C18.5146 10.144 18.3786 10.112 18.3306 10.096C18.1706 10.032 18.0906 9.952 18.0906 9.856ZM19.4586 4.84C19.4586 4.648 19.5946 4.384 19.8666 4.048C20.1546 3.696 20.4186 3.52 20.6586 3.52C20.9146 3.52 21.1626 3.688 21.4026 4.024C21.6426 4.344 21.7626 4.632 21.7626 4.888C21.7626 5.144 21.6106 5.432 21.3066 5.752C21.0026 6.056 20.7786 6.208 20.6346 6.208C20.3146 6.208 20.0346 6.04 19.7946 5.704C19.5706 5.368 19.4586 5.08 19.4586 4.84ZM25.3669 17.968V15.88C25.3669 15.704 25.3989 15.56 25.4629 15.448C25.5429 15.32 25.6309 15.256 25.7269 15.256C25.8869 15.256 25.9909 15.296 26.0389 15.376C26.1029 15.44 26.1589 15.584 26.2069 15.808C26.2549 16.032 26.3029 16.192 26.3509 16.288C26.9429 17.76 27.7749 18.496 28.8469 18.496C29.3429 18.496 29.8149 18.368 30.2629 18.112C30.7109 17.84 30.9349 17.4 30.9349 16.792C30.9349 16.264 30.7509 15.824 30.3829 15.472C30.0149 15.12 29.5669 14.848 29.0389 14.656C28.5109 14.448 27.9829 14.24 27.4549 14.032C26.9269 13.808 26.4789 13.488 26.1109 13.072C25.7429 12.64 25.5589 12.104 25.5589 11.464C25.5589 10.568 25.9189 9.848 26.6389 9.304C27.3589 8.76 28.2069 8.488 29.1829 8.488C29.9349 8.488 30.5349 8.56 30.9829 8.704C31.4309 8.832 31.6949 8.952 31.7749 9.064C31.8709 9.176 31.9189 9.28 31.9189 9.376C31.9189 9.392 31.9349 9.608 31.9669 10.024C31.9989 10.44 32.0149 10.704 32.0149 10.816C32.0149 11.088 31.9829 11.272 31.9189 11.368C31.8549 11.464 31.7429 11.512 31.5829 11.512C31.5029 11.512 31.3909 11.4 31.2469 11.176C31.1189 10.936 30.9669 10.68 30.7909 10.408C30.6309 10.136 30.3589 9.888 29.9749 9.664C29.6069 9.424 29.1749 9.304 28.6789 9.304C28.2149 9.304 27.8309 9.424 27.5269 9.664C27.2229 9.888 27.0709 10.176 27.0709 10.528C27.0709 10.72 27.0949 10.904 27.1429 11.08C27.1909 11.24 27.2709 11.384 27.3829 11.512C27.5109 11.64 27.6149 11.752 27.6949 11.848C27.7909 11.928 27.9429 12.016 28.1509 12.112C28.3589 12.208 28.5109 12.28 28.6069 12.328C28.7189 12.36 28.8949 12.424 29.1349 12.52C29.3909 12.6 29.5589 12.656 29.6389 12.688C30.7909 13.12 31.5669 13.576 31.9669 14.056C32.3669 14.52 32.5669 15.216 32.5669 16.144C32.5669 17.04 32.1429 17.872 31.2949 18.64C30.7189 19.136 29.9269 19.384 28.9189 19.384C28.6309 19.384 28.3269 19.352 28.0069 19.288C27.6869 19.224 27.4309 19.16 27.2389 19.096C27.0629 19.048 26.8549 18.976 26.6149 18.88C26.3749 18.784 26.2469 18.736 26.2309 18.736C26.1669 18.72 26.0869 18.696 25.9909 18.664C25.9109 18.632 25.8469 18.616 25.7989 18.616C25.7669 18.6 25.7189 18.576 25.6549 18.544C25.5909 18.512 25.5429 18.488 25.5109 18.472C25.4949 18.44 25.4709 18.4 25.4389 18.352C25.4069 18.304 25.3829 18.248 25.3669 18.184C25.3669 18.12 25.3669 18.048 25.3669 17.968ZM33.9488 2.728C33.6288 2.728 33.4688 2.64 33.4688 2.464C33.4688 2.288 33.8608 2.08 34.6448 1.84C34.7568 1.808 34.8848 1.768 35.0288 1.72C35.1888 1.672 35.2848 1.648 35.3168 1.648C35.3488 1.632 35.4048 1.608 35.4848 1.576C35.5808 1.544 35.6288 1.528 35.6288 1.528C35.6448 1.512 35.6848 1.488 35.7488 1.456C35.8288 1.424 35.8848 1.4 35.9168 1.384C35.9488 1.352 36.0128 1.312 36.1088 1.264C36.2048 1.2 36.3008 1.136 36.3968 1.072C36.7328 0.863999 36.9968 0.759999 37.1888 0.759999C37.4128 0.759999 37.5248 0.911999 37.5248 1.216C37.5248 1.248 37.5168 1.344 37.5008 1.504C37.4848 1.648 37.4608 1.872 37.4288 2.176C37.4128 2.464 37.3968 2.824 37.3808 3.256C37.3648 3.672 37.3488 4.24 37.3328 4.96C37.3168 5.664 37.3088 6.44 37.3088 7.288C37.3088 7.832 37.2928 8.656 37.2608 9.76C37.2448 10.848 37.2368 11.664 37.2368 12.208V12.712C37.2368 13.384 37.2688 13.72 37.3328 13.72C37.4288 13.72 37.5088 13.696 37.5728 13.648C37.6528 13.6 37.7408 13.52 37.8368 13.408C37.9488 13.296 38.0368 13.216 38.1008 13.168C40.3408 11.376 41.4608 10.36 41.4608 10.12C41.4608 9.912 41.2768 9.736 40.9088 9.592C40.5568 9.448 40.3808 9.312 40.3808 9.184C40.3808 9.024 40.4768 8.944 40.6688 8.944C40.7008 8.944 40.7648 8.952 40.8608 8.968C40.9568 8.968 41.0368 8.968 41.1008 8.968C41.8048 8.952 42.5248 8.928 43.2608 8.896C44.0128 8.864 44.4688 8.848 44.6288 8.848C45.0448 8.848 45.2528 8.92 45.2528 9.064C45.2528 9.176 45.2048 9.256 45.1088 9.304C45.0128 9.352 44.8848 9.392 44.7248 9.424C44.5648 9.44 44.3328 9.504 44.0288 9.616C43.7248 9.728 43.4128 9.888 43.0928 10.096C43.0448 10.128 42.9968 10.16 42.9488 10.192C42.9008 10.224 42.8448 10.264 42.7808 10.312C42.7328 10.36 42.6288 10.44 42.4688 10.552C42.3248 10.664 42.1568 10.792 41.9648 10.936C41.7408 11.112 41.4448 11.336 41.0768 11.608C40.3248 12.184 39.8848 12.528 39.7568 12.64C39.6288 12.752 39.5648 12.872 39.5648 13C39.5648 13.128 39.6528 13.312 39.8288 13.552C41.2848 15.328 42.5328 16.672 43.5728 17.584C44.0048 17.968 44.4368 18.216 44.8688 18.328C45.3168 18.44 45.6368 18.496 45.8288 18.496C46.0208 18.496 46.1168 18.568 46.1168 18.712C46.1168 18.904 46.0448 19.016 45.9008 19.048C45.7728 19.096 45.5168 19.12 45.1328 19.12C45.0208 19.12 44.5968 19.112 43.8608 19.096C43.1248 19.096 42.7168 19.096 42.6368 19.096C42.5088 19.096 42.3008 18.976 42.0128 18.736C41.7248 18.48 41.3728 18.128 40.9568 17.68C40.5568 17.216 40.2128 16.816 39.9248 16.48C39.6368 16.128 39.2848 15.696 38.8688 15.184C38.4528 14.672 38.2368 14.4 38.2208 14.368C38.1568 14.272 38.0688 14.224 37.9568 14.224C37.7968 14.224 37.6288 14.336 37.4528 14.56C37.2928 14.784 37.2128 15.04 37.2128 15.328C37.2128 15.36 37.2128 15.424 37.2128 15.52C37.2288 15.6 37.2368 15.672 37.2368 15.736C37.2368 15.912 37.2448 16.136 37.2608 16.408C37.2928 17.176 37.3488 17.608 37.4288 17.704C37.4448 17.72 37.4688 17.752 37.5008 17.8C37.5648 17.88 37.6208 17.952 37.6688 18.016C37.7968 18.192 38.1248 18.328 38.6528 18.424C39.1968 18.52 39.4688 18.64 39.4688 18.784C39.4688 19.04 39.2208 19.168 38.7248 19.168C38.6928 19.168 38.3728 19.144 37.7648 19.096C37.1568 19.048 36.7008 19.024 36.3968 19.024C36.1888 19.024 35.9328 19.04 35.6288 19.072C35.3408 19.104 35.0128 19.12 34.6448 19.12C34.2608 19.12 34.0688 19.024 34.0688 18.832C34.0688 18.672 34.2688 18.536 34.6688 18.424C35.0368 18.28 35.2688 18.072 35.3648 17.8C35.4608 17.528 35.5088 17 35.5088 16.216C35.5088 16.04 35.5088 15.832 35.5088 15.592C35.5248 15.352 35.5328 15.208 35.5328 15.16L35.5568 4.504C35.5568 3.304 35.1808 2.704 34.4288 2.704C34.3808 2.704 34.3008 2.712 34.1888 2.728C34.0928 2.728 34.0128 2.728 33.9488 2.728ZM52.7123 11.104C52.7123 9.36 53.0563 7.792 53.7443 6.4C54.4483 5.008 55.5203 3.888 56.9603 3.04C58.4003 2.176 60.1123 1.744 62.0963 1.744C62.8643 1.744 63.5843 1.808 64.2563 1.936C64.9283 2.048 65.4803 2.184 65.9123 2.344C66.3443 2.504 66.7203 2.672 67.0403 2.848C67.3603 3.008 67.6003 3.152 67.7603 3.28C67.9363 3.392 68.0403 3.448 68.0723 3.448C68.1203 3.448 68.2243 3.392 68.3843 3.28C68.5603 3.152 68.6803 3.088 68.7443 3.088C68.9843 3.088 69.1043 3.248 69.1043 3.568C69.1203 4.032 69.1523 4.52 69.2003 5.032C69.2643 5.544 69.3203 5.968 69.3683 6.304C69.4163 6.64 69.4403 6.84 69.4403 6.904C69.4403 7.176 69.3443 7.312 69.1523 7.312C68.9603 7.312 68.8243 7.216 68.7443 7.024C68.1843 5.808 67.2483 4.784 65.9363 3.952C64.6243 3.104 63.2723 2.68 61.8803 2.68C59.8803 2.68 58.2243 3.312 56.9123 4.576C55.6163 5.824 54.9683 7.56 54.9683 9.784C54.9683 11.256 55.2403 12.64 55.7843 13.936C56.3283 15.232 57.1523 16.304 58.2563 17.152C59.3763 18 60.6563 18.424 62.0963 18.424C63.3283 18.424 64.4403 18.144 65.4323 17.584C66.4403 17.024 67.0003 16.384 67.1123 15.664C67.1603 15.28 67.1843 14.272 67.1843 12.64C67.1843 12.016 67.0483 11.568 66.7763 11.296C66.5843 11.104 66.2323 10.976 65.7203 10.912C65.2403 10.864 64.9603 10.768 64.8802 10.624C64.8483 10.56 64.8323 10.48 64.8323 10.384C64.8323 10.208 64.9763 10.12 65.2643 10.12C65.4723 10.12 65.9203 10.144 66.6083 10.192C67.2963 10.224 67.7363 10.24 67.9283 10.24C68.2483 10.24 68.5923 10.24 68.9603 10.24C69.3283 10.224 69.6243 10.216 69.8483 10.216H70.2083C70.4643 10.216 70.5923 10.288 70.5923 10.432C70.5923 10.544 70.3843 10.688 69.9683 10.864C69.5683 11.04 69.3443 11.264 69.2963 11.536C69.1843 12.224 69.1283 13.12 69.1283 14.224C69.1283 14.704 69.1363 15.128 69.1523 15.496C69.1683 15.864 69.1763 16.128 69.1763 16.288C69.1923 16.432 69.2083 16.56 69.2243 16.672C69.2403 16.784 69.2483 16.864 69.2483 16.912C69.2483 16.992 69.1843 17.056 69.0563 17.104C68.9443 17.136 68.7523 17.192 68.4803 17.272C68.2083 17.336 67.9603 17.432 67.7363 17.56L67.5683 17.656C67.4563 17.736 67.3443 17.808 67.2323 17.872C67.1203 17.936 66.9683 18.016 66.7763 18.112C66.6003 18.208 66.4163 18.304 66.2243 18.4C66.0323 18.496 65.8163 18.6 65.5763 18.712C65.3363 18.808 65.0883 18.896 64.8323 18.976C64.5763 19.056 64.3123 19.128 64.0403 19.192C63.7683 19.256 63.4803 19.304 63.1763 19.336C62.8883 19.384 62.6003 19.408 62.3123 19.408C60.5683 19.408 59.0483 19.176 57.7523 18.712C56.4723 18.232 55.4803 17.592 54.7763 16.792C54.0723 15.976 53.5523 15.096 53.2163 14.152C52.8803 13.208 52.7123 12.192 52.7123 11.104ZM71.8249 9.88C71.8249 9.704 71.9289 9.576 72.1369 9.496C72.3609 9.4 72.7609 9.264 73.3369 9.088C73.9289 8.896 74.4809 8.68 74.9929 8.44C75.1529 8.376 75.2649 8.344 75.3289 8.344C75.5369 8.344 75.6409 8.504 75.6409 8.824C75.6409 8.888 75.6329 8.992 75.6169 9.136C75.6169 9.28 75.6169 9.392 75.6169 9.472C75.6169 9.808 75.6249 10.048 75.6409 10.192C75.6569 10.336 75.6729 10.424 75.6889 10.456C75.7209 10.488 75.7609 10.504 75.8089 10.504C75.8409 10.504 75.9609 10.344 76.1689 10.024C76.3769 9.704 76.6729 9.384 77.0569 9.064C77.4409 8.728 77.8649 8.56 78.3289 8.56C78.6169 8.56 78.9929 8.712 79.4569 9.016C79.7929 9.24 79.9609 9.472 79.9609 9.712C79.9609 10 79.8969 10.256 79.7689 10.48C79.6409 10.704 79.5129 10.856 79.3849 10.936C79.2729 11.016 79.1929 11.056 79.1449 11.056C79.0169 11.056 78.7849 10.96 78.4489 10.768C78.1289 10.576 77.7529 10.48 77.3209 10.48C76.8889 10.48 76.4809 10.656 76.0969 11.008C75.7289 11.36 75.5449 11.68 75.5449 11.968V14.464C75.5449 15.04 75.5449 15.512 75.5449 15.88C75.5609 16.232 75.5689 16.456 75.5689 16.552C75.5689 16.632 75.5689 16.704 75.5689 16.768C75.5849 16.832 75.5929 16.904 75.5929 16.984C75.5929 17.32 75.7049 17.608 75.9289 17.848C76.1529 18.088 76.4169 18.232 76.7209 18.28C76.8169 18.296 76.9369 18.312 77.0809 18.328C77.2249 18.344 77.3369 18.36 77.4169 18.376C77.4969 18.376 77.5849 18.392 77.6809 18.424C77.7769 18.44 77.8409 18.472 77.8729 18.52C77.9209 18.568 77.9449 18.624 77.9449 18.688C77.9449 18.944 77.8489 19.072 77.6569 19.072C77.3849 19.072 77.0169 19.048 76.5529 19C76.0889 18.968 75.7769 18.952 75.6169 18.952C75.1049 18.952 74.5769 18.968 74.0329 19C73.4889 19.048 73.1849 19.072 73.1209 19.072C72.9609 19.072 72.8409 19.056 72.7609 19.024C72.6809 18.992 72.6329 18.96 72.6169 18.928C72.6009 18.896 72.5929 18.848 72.5929 18.784C72.5929 18.576 72.6969 18.44 72.9049 18.376C73.3209 18.28 73.5689 18.08 73.6489 17.776C73.7449 17.456 73.7929 16.784 73.7929 15.76C73.7929 14.72 73.7849 13.864 73.7689 13.192C73.7689 12.52 73.7689 12.096 73.7689 11.92C73.7689 11.728 73.7609 11.576 73.7449 11.464C73.7449 11.352 73.7449 11.256 73.7449 11.176C73.7449 11 73.7209 10.856 73.6729 10.744C73.6249 10.632 73.5049 10.528 73.3129 10.432C73.1369 10.336 72.8809 10.288 72.5449 10.288C72.5289 10.288 72.4889 10.288 72.4249 10.288C72.3609 10.272 72.3129 10.264 72.2809 10.264C71.9769 10.264 71.8249 10.136 71.8249 9.88ZM81.4489 16.96C81.4489 16.384 81.5689 15.904 81.8089 15.52C82.0489 15.12 82.4089 14.816 82.8889 14.608C83.3849 14.384 83.8969 14.208 84.4249 14.08C84.9529 13.952 85.5929 13.824 86.3449 13.696C86.4409 13.68 86.5129 13.672 86.5609 13.672C86.6089 13.656 86.6729 13.648 86.7529 13.648C86.8329 13.632 86.9049 13.616 86.9689 13.6C87.0809 13.584 87.1529 13.568 87.1849 13.552C87.2329 13.536 87.2729 13.504 87.3049 13.456C87.3529 13.392 87.3769 13.312 87.3769 13.216C87.3769 13.056 87.3849 12.84 87.4009 12.568C87.4169 12.28 87.4249 12.08 87.4249 11.968C87.4249 11.056 87.1609 10.4 86.6329 10C86.1049 9.584 85.5929 9.376 85.0969 9.376C83.9449 9.376 83.3689 9.856 83.3689 10.816C83.3689 10.944 83.3849 11.104 83.4169 11.296C83.4489 11.488 83.4649 11.616 83.4649 11.68C83.4649 12 83.3209 12.16 83.0329 12.16C82.9369 12.16 82.8169 12.152 82.6729 12.136C82.5289 12.104 82.3609 12.064 82.1689 12.016C81.9929 11.952 81.8409 11.856 81.7129 11.728C81.6009 11.584 81.5449 11.416 81.5449 11.224C81.5449 10.6 81.9609 10.008 82.7929 9.448C83.6409 8.872 84.5689 8.584 85.5769 8.584C86.2649 8.584 86.8489 8.664 87.3289 8.824C87.8089 8.984 88.1609 9.168 88.3849 9.376C88.6249 9.568 88.8089 9.832 88.9369 10.168C89.0649 10.488 89.1369 10.744 89.1529 10.936C89.1689 11.112 89.1769 11.336 89.1769 11.608C89.1769 12.76 89.1529 13.672 89.1049 14.344C89.0729 15 89.0569 15.576 89.0569 16.072C89.0569 16.664 89.1209 17.136 89.2489 17.488C89.3769 17.824 89.5289 18.04 89.7049 18.136C89.8809 18.232 90.0569 18.288 90.2329 18.304C90.4089 18.32 90.5609 18.352 90.6889 18.4C90.8169 18.448 90.8809 18.544 90.8809 18.688C90.8809 19.024 90.3769 19.192 89.3689 19.192C88.9529 19.192 88.5929 19.08 88.2889 18.856C88.0009 18.632 87.7929 18.416 87.6649 18.208C87.5369 17.984 87.4649 17.872 87.4489 17.872C87.4329 17.872 87.3689 17.928 87.2569 18.04C87.1449 18.136 86.9849 18.256 86.7769 18.4C86.5849 18.544 86.3609 18.688 86.1049 18.832C85.8649 18.976 85.5769 19.096 85.2409 19.192C84.9209 19.304 84.6009 19.36 84.2809 19.36C83.2569 19.36 82.5129 19.12 82.0489 18.64C81.6489 18.24 81.4489 17.68 81.4489 16.96ZM83.3209 16.6C83.3209 17.144 83.4809 17.584 83.8009 17.92C84.1209 18.24 84.5769 18.4 85.1689 18.4C85.5849 18.4 85.9369 18.336 86.2249 18.208C86.5289 18.08 86.7529 17.936 86.8969 17.776C87.0409 17.616 87.1529 17.408 87.2329 17.152C87.3129 16.88 87.3529 16.672 87.3529 16.528C87.3689 16.384 87.3769 16.192 87.3769 15.952V14.224C87.3769 14.08 87.3209 14.008 87.2089 14.008C87.1769 14.008 87.1369 14.016 87.0889 14.032C87.0409 14.048 87.0009 14.056 86.9689 14.056C86.6009 14.12 86.3689 14.16 86.2729 14.176C86.1769 14.192 85.9529 14.24 85.6009 14.32C85.2489 14.4 85.0009 14.472 84.8569 14.536C84.7289 14.6 84.5369 14.704 84.2809 14.848C84.0409 14.976 83.8649 15.12 83.7529 15.28C83.6569 15.424 83.5609 15.616 83.4649 15.856C83.3689 16.08 83.3209 16.328 83.3209 16.6ZM91.9673 14.32C91.9673 12.768 92.4793 11.408 93.5033 10.24C94.5433 9.072 95.9753 8.488 97.7993 8.488C98.2153 8.488 98.7593 8.608 99.4313 8.848C100.119 9.072 100.487 9.184 100.535 9.184C100.615 9.184 100.655 8.896 100.655 8.32C100.655 7.104 100.663 6.312 100.679 5.944C100.695 5.56 100.703 5.32 100.703 5.224C100.703 4.712 100.695 4.336 100.679 4.096C100.663 3.856 100.615 3.592 100.535 3.304C100.471 3.016 100.343 2.816 100.151 2.704C99.9753 2.592 99.7353 2.536 99.4313 2.536H99.1673C98.9273 2.536 98.7833 2.528 98.7353 2.512C98.6873 2.496 98.6633 2.44 98.6633 2.344V2.32C98.6633 2.208 98.7433 2.128 98.9033 2.08C99.0633 2.016 99.3833 1.912 99.8633 1.768C100.359 1.608 100.863 1.408 101.375 1.168C101.423 1.152 101.519 1.112 101.663 1.048C101.807 0.967999 101.927 0.911999 102.023 0.879999C102.135 0.831999 102.231 0.808 102.311 0.808C102.503 0.808 102.599 0.967999 102.599 1.288C102.599 1.336 102.543 2.016 102.431 3.328C102.335 4.64 102.287 5.696 102.287 6.496C102.287 8.144 102.279 9.928 102.263 11.848C102.247 13.768 102.239 14.904 102.239 15.256C102.239 16.344 102.287 17.072 102.383 17.44C102.495 17.808 102.727 18.048 103.079 18.16C103.127 18.176 103.263 18.208 103.487 18.256C103.711 18.288 103.871 18.336 103.967 18.4C104.063 18.448 104.111 18.536 104.111 18.664C104.111 18.856 103.495 19 102.263 19.096C102.007 19.112 101.711 19.152 101.375 19.216C101.039 19.296 100.831 19.336 100.751 19.336C100.575 19.336 100.487 19.248 100.487 19.072C100.487 19.024 100.471 18.904 100.439 18.712C100.423 18.52 100.415 18.344 100.415 18.184C100.415 17.912 100.343 17.776 100.199 17.776C100.151 17.776 100.031 17.856 99.8393 18.016C99.6633 18.176 99.4553 18.36 99.2153 18.568C98.9753 18.76 98.6233 18.936 98.1593 19.096C97.7113 19.256 97.2233 19.336 96.6953 19.336C95.2073 19.336 94.0473 18.848 93.2153 17.872C92.3833 16.88 91.9673 15.696 91.9673 14.32ZM93.6953 13.192C93.6953 14.408 94.0633 15.528 94.7993 16.552C95.5513 17.576 96.5113 18.088 97.6793 18.088C98.3993 18.088 99.0553 17.904 99.6473 17.536C100.239 17.168 100.535 16.72 100.535 16.192L100.559 12.088C100.559 11.112 100.335 10.496 99.8873 10.24C98.7033 9.536 97.7513 9.184 97.0312 9.184C95.9913 9.184 95.1753 9.568 94.5833 10.336C93.9913 11.088 93.6953 12.04 93.6953 13.192ZM105.303 14.344C105.303 12.744 105.751 11.392 106.647 10.288C107.559 9.184 108.735 8.632 110.175 8.632C110.847 8.632 111.455 8.752 111.999 8.992C112.559 9.232 112.991 9.528 113.295 9.88C113.599 10.216 113.855 10.576 114.063 10.96C114.271 11.344 114.407 11.664 114.471 11.92C114.551 12.16 114.591 12.336 114.591 12.448C114.591 12.736 114.263 12.88 113.607 12.88H108.159H107.439C107.311 12.88 107.231 12.896 107.199 12.928C107.183 12.944 107.175 13.016 107.175 13.144C107.175 14.648 107.575 15.832 108.375 16.696C109.191 17.56 110.143 17.992 111.231 17.992C111.903 17.992 112.583 17.816 113.271 17.464C113.975 17.096 114.343 16.912 114.375 16.912C114.535 16.912 114.615 16.984 114.615 17.128C114.615 17.192 114.559 17.312 114.447 17.488C114.335 17.648 114.159 17.84 113.919 18.064C113.679 18.288 113.399 18.504 113.079 18.712C112.759 18.92 112.359 19.096 111.879 19.24C111.399 19.384 110.895 19.456 110.367 19.456C108.959 19.456 107.759 19.024 106.767 18.16C105.791 17.296 105.303 16.024 105.303 14.344ZM107.319 11.968C107.319 12.192 107.423 12.304 107.631 12.304C108.063 12.304 108.855 12.28 110.007 12.232C111.159 12.184 111.775 12.16 111.855 12.16C112.079 12.16 112.215 12.144 112.263 12.112C112.327 12.064 112.359 11.984 112.359 11.872C112.359 11.392 112.135 10.832 111.687 10.192C111.239 9.552 110.599 9.232 109.767 9.232C108.999 9.232 108.399 9.552 107.967 10.192C107.535 10.816 107.319 11.408 107.319 11.968Z" fill="black"/>
</svg>
